<?xml version="1.0" encoding="UTF-8"?><svg id="a" xmlns="http://www.w3.org/2000/svg" width="1699.58" height="1553.45" viewBox="0 0 1699.58 1553.45"><defs><style>.b{fill:#edcd7b;}.c{fill:#1a134b;}.d{fill:#251324;}.e{fill:#15114b;}.f{fill:#fcca45;}.g{fill:#dc9b2a;}.h{fill:#eecf7b;}.i{fill:#1a144f;}.j{fill:#d5a05a;}.k{fill:#fbca47;}.l{fill:#fae58b;}.m{fill:#e7c479;}.n{fill:#1a134d;}.o{fill:#4787be;}.p{fill:#292e56;}.q{fill:#e18627;}.r{fill:#efcc71;}.s{fill:#223481;}.t{fill:#2f324d;}.u{fill:#231624;}.v{fill:#151043;}.w{fill:#df8325;}.x{fill:#de9d2f;}.y{fill:#edcf79;}.z{fill:#efcd71;}.aa{fill:#2a1726;}.ab{fill:#fbe88e;}.ac{fill:#d19e54;}.ad{fill:#fcea91;}.ae{fill:#2d314e;}.af{fill:#fbcb43;}.ag{fill:#dc9e2f;}.ah{fill:#eecf7e;}.ai{fill:#f4b438;}.aj{fill:#1b134d;}.ak{fill:#fbea91;}.al{fill:#fbca45;}.am{fill:#e28526;}.an{fill:#fccb4b;}.ao{fill:#241423;}.ap{fill:#efcb73;}.aq{fill:#4588be;}.ar{fill:#19114a;}.as{fill:#b1dff2;}.at{fill:#231326;}.au{fill:#cc9e5f;}.av{fill:#4787bf;}.aw{fill:#2f3352;}.ax{fill:#1d1130;}.ay{fill:#1f1322;}.az{fill:#32344c;}.ba{fill:#df9d2f;}.bb{fill:#eece74;}.bc{fill:#f7efb3;}.bd{fill:#f1e5b2;}.be{fill:#df9d30;}.bf{fill:#4286bf;}.bg{fill:#110d34;}.bh{fill:#213481;}.bi{fill:#4587be;}.bj{fill:#cf9d59;}.bk{fill:#4b8bc1;}.bl{fill:#2e3453;}.bm{fill:#2c3256;}.bn{fill:#e08325;}.bo{fill:#66aee1;}.bp{fill:#da4e5e;}.bq{fill:#211425;}.br{fill:#f6eab0;}.bs{fill:#211424;}.bt{fill:#2f314f;}.bu{fill:#ebce7d;}.bv{fill:#df9d2e;}.bw{fill:#241029;}.bx{fill:#1e132a;}.by{fill:#f9ec9a;}.bz{fill:#65ade0;}.ca{fill:#1d1229;}.cb{fill:#213583;}.cc{fill:#fcca48;}.cd{fill:#fae489;}.ce{fill:#fbcb46;}.cf{fill:#edce7d;}.cg{fill:#f5a0ab;}.ch{fill:#67aee2;}.ci{fill:#e8c97a;}.cj{fill:#211226;}.ck{fill:#f1cb73;}.cl{fill:#231521;}.cm{fill:#afdff1;}</style></defs><path class="c" d="M1122.26,115.18c118.6,103.14,173.78,243.55,202.13,404.12,2.91,16.5,14.37,118.4,18.02,123.18,1,1.32,5.88,2.89,7.55,2.75,21.52-5.79,54.14-23.53,75.54-24.57,15.09-.73,14.84,10.23,17.02,10.95,1.66.54,32.09-8.23,33.61-9.15,2.61-1.58,18.47-35.68,23.32-42.55,32.09-45.46,79.04-28.58,86.58,26.13,96.01,6.04,144.34,114.26,92.25,203.58-31.77,54.47-94.68,87.64-147.9,110.11-4.86,2.05-33.33,10.58-34.46,12.14-1.07,1.47,1.31,17.9-7.66,24.02-8.75,5.97-58.26,15.05-71.19,17.39-14.93,2.71-30.13,4.35-45.21,5.82-3.94,62.53-11.2,127.66-26.5,188.1-2.38,9.41-6.5,30.1-10.94,37.46-7.52,12.44-28.42,17.86-35.97,26.43-6.87,7.8-17.74,29.25-25.62,40.02-4.33,5.92-20.22,21.09-22.02,25.28-6.81,15.84-12.27,56.28-18.93,77.08-22.45,70.11-61.33,140.64-127.77,167.45-83.46,33.68-153.87-5.79-167.2-103.74-65.93,7.29-132.62,8.31-198.54.51-7.38,20.27-11.08,42.11-21.69,60.96-30.41,54.04-97.26,63.89-149.03,47.75-78.84-24.58-120.56-111.59-142.28-192.2-3.64-13.51-7.05-42.9-11.05-52.75-2.29-5.63-29.98-36.96-36.46-46.85-10.11-15.43-18.23-38.85-26.98-51.67-5.78-8.47-26.05-15.86-30.9-26.51-3.54-7.78-4.74-24.93-5.97-34.13-6.97-52.04-9.35-105.22-12.14-157.69-26.33-3.77-72.33-3.7-96-15.95-14.46-7.48-6.48-18.82-9.06-22.49-1.1-1.56-29.39-9.03-34.46-11.04-60.37-23.95-140.87-69.55-158.4-143.66-19.03-80.42,32.92-151.33,106.92-154.45,5.87-55.52,51.14-72.32,85.39-28.49,4.24,5.43,18.64,32.86,20.27,33.8.98.56,20.54,4.96,21.6,4.63.66-.2,4.52-7.25,7.46-8.59,13.75-6.28,56.78,13.79,59.23,11.8-1.09-13,13.12-31.18,14.81-40.37,2.55-13.91.92-37.11,2.26-52.51,8.58-98.52,23.51-194.87,65.46-283.3C525.93-18.09,891.17-85.79,1122.26,115.18ZM503.87,151.92c-121.02,119.71-156.57,287.42-159.96,461.41,1.31,5.89,48.26,41.04,55.96,46.79,173.97,129.77,397.42,204.92,608.18,163.54,96.06-18.86,231.09-77.74,298.82-156.94,2.75-3.22,11.04-9.95,11.52-14.36-15.19-137.54-37.95-275.28-107.89-392.79-88.91-149.39-239.5-239.47-403.63-231.95-111.4.55-220.22,42.42-303,124.3ZM1674.87,751.42c8.63-63.81-30.88-116.06-89.38-117.76-4.14,15.11-12.49,31.88-26.62,37.46,6.84-21.2,11.35-74.23-8.67-87.81-27.45-18.63-43.32,44.8-56.86,56.99-9.03,8.12-30.17,11.16-41.48,15.43,18.01,62.85,31.12,127.07,39,192.49,2.24,18.6,3.42,37.42,5.01,56.11,63.89-20.91,167.82-70.26,178.99-152.91ZM215.87,871.32c12.85-64.05,20.34-131.69,21.06-197.31-.59-1.65-25.26-5.71-29.3-7.58-15.93-7.39-33.79-70.46-60.47-53.84-21.89,13.63-11.79,66.8-5.3,88.22-15.8-5.3-23.77-22.74-28.67-38.55-52.3,3.3-92.47,43.63-89.32,103.45,4.55,86.63,115.56,137.18,179.96,157.3,4.77-17.02,8.55-34.3,12.04-51.7ZM358.87,660.12c-4.12-2.99-25.12-21.55-27.43-20.95-1.77,4.22-7.16,17.78-2.57,20.95-4.21-.68.09,2.71.4,2.88,6.88,3.83,17.1,6.09,22.61,9.24.1.06-1.11,2.12-1.01,2.17,3.11,1.85,14.21,5.72,11.99,8.8,4.81-.75,1.87,1.71,2.23,2,7.43,6.08,19.01,10.48,20.78,22.2l-58.99-21.99c-1.81-.69-3.56-1.67-5-2.2l1-4.39c-5.44.43-11.06-.55-16.19-2.33-1.35-.47-6.73-5.4-7.22-5.55-10.02-3.18-24.06-3.88-34.32-8.39l-2.27,1.96c-1.16.84-.82,2.09-1,3.3-2.69-1.95-1.91-1.09-2,1.63-2.93,85.47-11.35,166.7-31.24,248.36-2.02,8.28-5.38,17.27-6.66,25.68-.29,1.89-1.15,5.14,1.9,2.64-.08.71.05,1.48,0,2.2l-1,1.08c15.02,5.28,31.42,6.79,47.29,8.87,8.05,1.06,20.27,3.86,29.19,4.38,33.27,1.97,66.6-1.68,99.52-2.22l-5.99,6.59h-6.01s1.01,2.19,1.01,2.19c-20.67,6.65-40.35,11.95-62.32,13.2-1.05.25-.58,2.11-.68,2.21-.24.22-1.67-.5-1.79.52,3.73,59.44,7.19,119.04,15.23,177.79,1.45,5.62,11.79,8.23,15.57,10.91.09.07-1.13,2.1-1.01,2.18.31.22,5.76,1.41,7.01,2.23.1.06-1.1,2.11-1,2.17.61.4,4.37.82,6.81,2.41.21.14-.9,1.94-.82,1.99.45.28,7.83,2.02,10.01,3.31,6.9,4.09,13.21,9.82,21.01,12.12l-1.02,2.17,5.28.07,13.73,8.74c-4.12-1.4-14.79-6.34-17.65-6.27-2.7.07-14.6,5.91-6.31,6.81l-.03,3.85c-11.66-3.86-10.16,20.38,0,12.1,5.58,12.72,24.48,37.03,33.49,48.41,17.68,22.32,38.79,41.04,55.5,64.35l-35.99-13.75c23.99,102.75,78.61,216.02,192.21,198.78,50.73-7.7,70.22-44.57,79.75-96.08-.47-3.52-28.13-13.32-27.97-21.31,35.74-.69,74.22,7.45,110.46,8.84,92.59,3.55,183.19-9.84,273.53-29.73,2.64,2.95-6.6,10.2-8.53,12.05-19.23,18.44-76.4,56.01-85.36,81.07-2.89,8.08,14.23,24.34,19.89,28.97,28.31,23.12,68.8,19.61,100.52,6.62,69.2-28.33,103.43-116.29,122.26-188.92l-1.27-2.49c-9.28,5.71-23.13,15.04-33.47,17.09-1.28.25-6.42,2.05-6.04-1.13l75.98-86.94-1.47-1.61c-3.13,2.54-6.98,3.04-10.52,4.38-1.68-.85-6.32,1.52-7,1.09-.64-.41-3.24-13.58-1.01-15.38-3.95.81-10.1-2.33-12.99-2.21l23.73-10.94,5.27-.07,41.99-22-1-2.19h6.01s-1.01-2.19-1.01-2.19c8.92-.66,14.06-9.03,21.8-12.35-.4-15.83,9.74-34.37,9.21-49.26,2.51-2.37,2.92-16.12,4.01-17.6.35-.48,2.72,1.48,2.98,1.1.46-.68-.24-13.14.04-15.92,3.26-32.04,9.02-66.87,12.9-98.86.13-1.06,2.8-.78,3.09-3.43.81-7.31-1.48-16.43-1.05-24.29,2.64-47.86,4.41-95.86,6.25-143.81l3.78-2.98-1.99,7.68,2.98-3.28c3.66,3.34,7.95,64.46,8.54,73.56.12,1.93-1.47,3.39-1.37,5,.37,5.65,1.99,33.31,3.84,35.82,2.49,3.38,6.04-.11,6.42-.1,22.64.33,43.58-7.11,66.58-8.71l-1.01-2.18c5.39,1.96,9.58-1.59,12.46-2.3,2.61-.65,6.53,1.23,7.07,1.13,1.85-.33.34-3.19.48-3.23,6.69-2.22,10.46,1.94,10.86-11.5,2.17-72.48-20.71-183.62-41.96-253.07-.98-3.2.43-7.21.09-8.24-.05-.16-2.69.46-3.09-.65-3.28-9.06-2.86-20.1-13.18-19.11-1.32.13-21.78,7.73-24.95,8.84-.29.1-5.41,3.58-4.77,4.31-8.71,3.04-24.51,8.47-32,13.2-5.97,3.77-.8,1.15-1.06,2.67-1.28,7.44-1.22,14.09-2.37,20.48-5.88,32.76-13.25-10.11-14.58-20.38l-.99,2.73c-.13-.52-1.25-3.32-1.49-3.29-5.02,5.7-10.18,11.16-15.51,16.49-1.08-2.71-2.11-.83-3.25.09-4.42,3.59-9.25,10.41-13.64,14.05-1.53,1.27-13.59,11.02-14.42,11.45-3.28,1.71-8.7-.6-3.71,4.1-5.49-.34-3.71,4.18-3.99,4.4-.54.42-2.9-1.49-4-.62-3.6,2.85-9.71,10.71-13.36,13.44-2.09,1.56-9.55,2.2-6.64,4.77l-12.73,8.78c-3.35,1.35-7.05,1.78-11.89,4.88-7.22,4.63-16.65,13.32-23.64,17.47-3.57,2.12-10.07,3.15-11.74,4.09-.09.05,1.04,1.9.84,2.01-7.89,4.38-18.6,10.38-26.84,11.19l1,2.15c-8.34,1.03-15.48,8.18-22.81,10.7-2.35.81-7.49-.13-8.19.35-.4.28,1.45,2.73.06,3.88-1.8,1.5-9.7,2.08-11.3,2.78-4.11,1.8-12.04,7-16.54,8.64-12.79,4.66-28.03,8.78-41.22,11.11l2.99,2.17-22,4.42,1.01,2.18-30.01,4.42,1.01,2.18c-8.09-.41-14.34,3.81-23.01,2.22l1.01,2.18-32.01,2.22,1.01,2.18c-3.62.49-8.11-.61-11.56-.07-44.83,6.98-95.01,6-139.89,0-4.15-.55-9.27.58-13.56.07l1.01-2.18-34.01-2.22,1.01-2.18c-7.52-.51-17.99-.79-25.29-2.26-.7-.14-.73-1.97-1.43-2.11-17.43-3.67-36.01-7.34-52.29-11.05l1.01-2.18-18.01-2.22-58-19.8,1.01-2.18-5.01-.02,1.01-2.18c-14.69-1.29-28.91-12.28-44-15.42l1.99-2.17-17-4.42,1.01-2.18c-12.48-1.01-22.64-12.76-35-15.45l1-2.15-10.01-2.22,1.01-2.18-6.01-.02,1.01-2.18c-6.69,1.44-7.43-6.52-14.01-4.42l1.01-2.18c-2.84-.74-12.04-3.38-14.01-4.41-2.92-1.54-9.61-9.64-14.99-8.81l2.99-2.17-6-.02,1.01-2.18-13.01-4.42,1.99-4.38c-8.09,1.95-11.75-8.22-19-6.62,2.26-2.32-2.15-3.38-3.8-4.61l-.26-3.02-18.93-7.78,2.99-2.17c-7.61,1.81-11.84-8.83-18.99-8.83l1.99-2.17c-.83-.22-2.56.28-2.99-.01-2.79-1.86-5.87-4.78-8.65-6.89-.32-.25.73-1.84.66-1.9-.48-.37-9.41-4.09-11-4.43l1.99-2.17-5.99-.03.99-2.75c-2.42-1.98-10.51-5.03-12-6.05-.09-.06,1.1-2.11,1.01-2.18-.49-.35-3.29.14-5-1.11Z"/><path class="ch" d="M806.87,27.62l-3.99,2.19c160.41,12.78,306.75,114.02,392.4,261.91,64.96,112.15,87.1,246.64,111.59,375-67.73,79.21-202.77,138.09-298.82,156.94-210.76,41.38-434.21-33.78-608.18-163.54,4.36-174.06,17.64-357.92,104-508.2,82.78-81.88,191.6-123.75,303-124.3ZM950.65,101.63c-11.34,1.24-22.53,9.31-23.55,22.55-3.33,43.31,80.4,78.75,89.98,39.51,8.22-33.64-39.62-65-66.43-62.06ZM678.65,209.43c-12.59,1.65-34.12,14.99-35.59,30.24-2.19,22.88,20.21,2.25,26.45-.69,3.75-1.77,8.75-3.8,12.71-4.72,9.39-2.17,35.53,1.85,31.42-13.35-3-11.12-26.66-12.57-35-11.48ZM1102.61,253.92c11.56-10.08-15.13-32.49-23.48-35.73-11.07-4.29-39.01-5.66-44.09,9.36-5.53,16.36,21.41,10.84,30.84,12.92s30.7,18.71,36.73,13.46ZM661.87,492.92c13.7,9.36,32.07,8.96,46.99,4.38l-7.99-2.18c65.68,6.52,74.37-125.76,41-173.8-33.91-48.81-89.35-34.15-113.17,16.87-22.28,47.73-19.53,132.63,33.17,154.73ZM1050.87,495.12c-.74.24-3.27,1.04-2.99,2.18,14.45,4.19,28.03,3.29,40.99-5.48,74.35-31.62,52.36-200.99-33.47-192.47-29.84,2.96-50.79,34.85-57.24,64.63-10.02,46.3-.31,124.96,52.71,131.13ZM773.71,519.59c-56.87,1.59-74.45,61.76-47.86,111.4,55.89,104.34,252.66,111.62,312.05,9.91,21.08-36.1,21.59-95.45-21.82-110.26-33.51-11.43-81.6,16.57-120.75,16.21-43.57-.4-84.54-28.3-121.62-27.26ZM940.87,741.52c-.1-1.08.1-2.22,0-3.3-12.65,1.68-24.84,6.79-37.64,8.65-9.68,1.4-23.56-.39-31.65,1.53-2.99.71-2.07.7-2.71,3.02-2.69,9.81,18.37,21.7,25.76,22.81,16.28,2.45,48.21-11.55,46.24-32.71Z"/><path class="bz" d="M1242.87,1256.32c3.54-1.34,7.39-1.84,10.52-4.38l1.47,1.61-75.98,86.94c-.38,3.18,4.76,1.39,6.04,1.13,10.34-2.05,24.2-11.37,33.47-17.09l1.27,2.49c-18.83,72.64-53.06,160.6-122.26,188.92-31.72,12.99-72.21,16.49-100.52-6.62,13.97-39.43,44.58-67.79,74.69-92.19,13.06-10.58,77.57-52.97,80.76-64.06,1.72-5.98,1.18-8.12-4.19-9.57-13.45-3.63-100.15,17.41-121.9,20.46-25.03,3.52-50.22,5.54-75.35,7.86-13.67-.45-28.91,1.08-43,1.1-21.68.03-43.35.03-65-1.1-39.85-2.08-79.79-7.56-119-15.4-1.61-.32-3.33-.75-5-1.1-65.61-13.56-133.22-34.45-190-73.7,228.18,69.9,490.95,59.05,714-25.3Z"/><path class="bf" d="M528.87,1281.62c56.78,39.25,124.39,60.14,190,73.7-7.2,6.75-14.88-1.77-17.65-2-1.45-.12-2.99,2.62-5.7,1.99-7.97-1.86-17.68-4.7-25.09-6.78-.78-.22-1.72-3.51-5.77-4.59-8.38-2.22-14.54-1.93-23.1-2.14-1.7-.04-9.23-7.32-10.49,2.25-.82,6.21,7.62,8.74,8.61,12.03,1.47,4.89-1.28,15.94.69,20.14.63,1.34,3.88,1.69,4.94,3.37,1.34,2.14,3.78,8.75,4.56,9.29,1.77,1.22,4.57-.28,6.56,1.58,1.66,1.55.72,6.57,3.07,7.68,3.03,1.43,4.65-3.05,6.94-3.25,3.25-.29,8.97,2.55,11.5.63.69-.53,6.6-14.68,8.32-16.14,1.88-1.59,4.85-.41,6.62-1.52,1.64-1.02,2.11-4.2,3.55-4.89,3.35-1.62,1.92,5.73,7.89,6.37,5.38.57,10.83-5.4,12.06-5.36,2.82.09,4.04,5.5,5,5.51,1.19.01,1.83-5.93,5.52-5.05,11.3,2.69-14.82,10.3-.55,13.95,6.79-2.24,5.03-14.7,5.71-16.35,1.96-4.76,12.18-.83,10.74,5.68-1.81,4.35-10.51-3.64-8.7,11.95,1.07,9.23,8.38,2.9,10.79,4.67,2.22,11.65-13.24,1.37-20.18,1.95-1.31.11-15.13,4.22-15.84,4.66-1.69,1.03-1.74,4.96-1.99,4.96h-21.5c-.19,0-2.82,2.92-2.5,3.29,1.49.66,3.15-1.07,4-1.09-.16,7.99,27.5,17.79,27.97,21.31-9.54,51.51-29.02,88.38-79.75,96.08-113.61,17.24-168.22-96.03-192.21-198.78l35.99,13.75c-16.71-23.31-37.82-42.03-55.5-64.35-9.02-11.38-27.91-35.69-33.49-48.41-.53-1.2-2.45-3.6.48-3.28,44.57,23.08,91,42.62,138.52,57.18Z"/><path class="bo" d="M1490.87,848.22c-7.88-65.42-20.99-129.65-39-192.49,11.31-4.28,32.45-7.31,41.48-15.43,13.54-12.19,29.41-75.61,56.86-56.99,20.02,13.58,15.51,66.61,8.67,87.81,14.13-5.58,22.47-22.35,26.62-37.46,58.5,1.7,98,53.95,89.38,117.76-52.35,48.11-119.39,74.91-184,96.8Z"/><path class="bo" d="M23.87,765.72c-3.14-59.82,37.02-100.15,89.32-103.45,4.9,15.8,12.87,33.24,28.67,38.55-6.49-21.42-16.59-74.59,5.3-88.22,26.68-16.62,44.54,46.45,60.47,53.84,4.04,1.87,28.7,5.93,29.3,7.58-.72,65.62-8.21,133.26-21.06,197.31-67.7-24.1-140.24-49.52-192-105.6Z"/><path class="av" d="M399.87,660.12c-7.7-5.74-54.66-40.9-55.96-46.79,3.39-173.99,38.94-341.7,159.96-461.41-86.36,150.28-99.64,334.14-104,508.2Z"/><path class="cm" d="M1306.87,666.72c-24.49-128.36-46.63-262.85-111.59-375-85.66-147.89-232-249.14-392.4-261.91l3.99-2.19c164.13-7.51,314.73,82.56,403.63,231.95,69.93,117.51,92.7,255.24,107.89,392.79-.48,4.41-8.77,11.14-11.52,14.36Z"/><path class="i" d="M413.87,1211.22c6.4,2.17,12.28,5.67,18.99,6.61l-1.99,2.17,10.99,2.23-2.99,2.17,74.99,26.43-1.99,2.17,62.99,17.6,26,4.42-1.99,2.17,25,2.22-1.01,2.18c21.61.92,43,8.16,64.46,11.06,92.67,12.52,178.73,11.7,269.99,4.27,15.24-1.24,31.24-1.06,46.55-2.13l-1.99-2.17c18.7-.11,37.63-6.63,55.38-5.63,8.16-5.85,22.89-5.56,33.9-7.63,1.28-.24,7.37-4.35,11.71-2.17l-1.99-2.17c8.35-1.41,20.35-2.36,28.27-4.46,11.36-3.01,27.03-9.17,38.47-13.08l39.25-11.09-1.01-2.18c5.27.52,11.12-4.2,16.01-4.41,2.89-.12,9.05,3.02,12.99,2.21-2.23,1.8.37,14.97,1.01,15.38.68.43,5.31-1.94,7-1.09-223.05,84.35-485.82,95.2-714,25.3-47.52-14.56-93.96-34.1-138.52-57.18-2.92-.32-1,2.08-.48,3.28-10.16,8.28-11.66-15.97,0-12.1l.03-3.85c-8.28-.9,3.61-6.74,6.31-6.81,2.86-.08,13.54,4.87,17.65,6.27Z"/><path class="aq" d="M686.87,1408.12c-.85.02-2.51,1.75-4,1.09-.32-.36,2.3-3.29,2.5-3.29h21.5c.25,0,.3-3.94,1.99-4.96.72-.44,14.54-4.55,15.84-4.66,6.94-.58,22.4,9.7,20.18-1.95-2.41-1.77-9.71,4.56-10.79-4.67-1.81-15.59,6.89-7.6,8.7-11.95,1.43-6.51-8.78-10.44-10.74-5.68-.68,1.65,1.08,14.11-5.71,16.35-14.28-3.65,11.84-11.26.55-13.95-3.68-.88-4.33,5.06-5.52,5.05-.96,0-2.17-5.42-5-5.51-1.23-.04-6.67,5.93-12.06,5.36-5.97-.63-4.53-7.99-7.89-6.37-1.44.7-1.92,3.87-3.55,4.89-1.77,1.1-4.74-.07-6.62,1.52-1.72,1.45-7.63,15.61-8.32,16.14-2.53,1.92-8.24-.93-11.5-.63-2.29.21-3.91,4.68-6.94,3.25-2.35-1.11-1.41-6.12-3.07-7.68-1.99-1.86-4.79-.36-6.56-1.58-.78-.54-3.22-7.15-4.56-9.29-1.05-1.68-4.31-2.03-4.94-3.37-1.97-4.21.78-15.25-.69-20.14-.99-3.29-9.43-5.82-8.61-12.03,1.26-9.58,8.8-2.3,10.49-2.25,8.56.22,14.72-.08,23.1,2.14,4.04,1.07,4.99,4.37,5.77,4.59,7.41,2.08,17.13,4.92,25.09,6.78,2.71.63,4.25-2.11,5.7-1.99,2.78.23,10.46,8.75,17.65,2,1.67.35,3.39.78,5,1.1l-2.03,1.68c2.08,3.29,8.08.61,10.03,1.63.18.09-.9,3.92,0,4.39.75.38,5.89-1.45,8.43-1.11,11.41,1.54,22.64,4.73,34.13,5.44,1.24,8.61-5.5-2.28-11.55,3.93-5.26,5.4-.29,10.96-2.96,13.27-4.53,3.93-6.14-6.94-12.54-2.81-11.15,7.2,6.98,6.27,4.42,13.59l-9.7,10.01,1.44,2.82c10.69,2.9,21.06,1.52,31.86,2.1,14.46.77,40.73,4.4,54.87,2.14,7.57-1.21,9.41-1.42,10.2-8.75,11.58,1.72-4.65,5.57,2.91,6.65,6.85.98,4.88-4.42,6.13-5.56,1.78-1.63,4.98.82,6.68.94,1.07.07,3-2.22,4.14-1.99.73.15,1.07,5.86,12.12,6.6,9.8.66,30.46,1.08,39.96.08,4.06-.43,9.4-4.19,14.82-2.19,4.92-7.79-4.78-9.43,1.63-16.55-7.61,5.33-19.59-7.51-22.49-7.79-3.88-.38-6.74,5.8-10.51-4.31,5.56-4.2,12.47-1.12,16.13-1.67,5.17-.77,4.38-1.76,11.33-2.18,2.31-.14,8.77-1.89,9.89-1.54,1.8.57,1.23,4.35,5.06,4.3,2.2-.03,3.79-2.76,5.36-3.03,4.82-.83,12.86,0,15.23-4.68-2.66-.09-5.34.07-8-.01,25.13-2.32,50.33-4.35,75.35-7.86,21.75-3.05,108.45-24.09,121.9-20.46,5.37,1.45,5.92,3.59,4.19,9.57-3.19,11.09-67.7,53.47-80.76,64.06-30.1,24.4-60.72,52.76-74.69,92.19-5.67-4.63-22.78-20.89-19.89-28.97,8.96-25.07,66.13-62.63,85.36-81.07,1.93-1.85,11.17-9.11,8.53-12.05-90.34,19.9-180.94,33.28-273.53,29.73-36.24-1.39-74.72-9.53-110.46-8.84Z"/><path class="o" d="M215.87,871.32c-3.49,17.4-7.27,34.68-12.04,51.7-64.41-20.11-175.41-70.66-179.96-157.3,51.76,56.08,124.3,81.5,192,105.6Z"/><path class="bi" d="M1674.87,751.42c-11.18,82.65-115.1,131.99-178.99,152.91-1.59-18.68-2.77-37.51-5.01-56.11,64.61-21.89,131.65-48.69,184-96.8Z"/><path class="bq" d="M414.87,1207.92c232.45,116.51,644.46,130.47,873-2.2,1.32-.76,2.7-1.41,4-2.2v1.1l1,2.19-41.99,22-5.27.07-23.73,10.94c-4.89.21-10.74,4.93-16.01,4.41l1.01,2.18-39.25,11.09c-11.44,3.91-27.12,10.06-38.47,13.08-7.92,2.1-19.92,3.05-28.27,4.46l1.99,2.17c-4.35-2.18-10.43,1.93-11.71,2.17-11,2.07-25.73,1.79-33.9,7.63-17.75-1-36.68,5.52-55.38,5.63l1.99,2.17c-15.31,1.07-31.31.89-46.55,2.13-91.26,7.43-177.32,8.26-269.99-4.27-21.46-2.9-42.85-10.14-64.46-11.06l1.01-2.18-25-2.22,1.99-2.17-26-4.42-62.99-17.6,1.99-2.17-74.99-26.43,2.99-2.17-10.99-2.23,1.99-2.17c-6.71-.94-12.6-4.44-18.99-6.61l-13.73-8.74-5.28-.07,1.02-2.17c-7.8-2.3-14.11-8.03-21.01-12.12v-1.1c11.94,7.34,27.36,14.57,40,20.9Z"/><path class="ay" d="M1318.87,690.92c-1.95,1.95-4.17,4.83-6,6.6-231.52,224.56-569.96,194.74-829,48.4v-1.1c1.96,1.03,11.17,3.67,14.01,4.41l-1.01,2.18c6.58-2.1,7.32,5.86,14.01,4.42l-1.01,2.18,6.01.02-1.01,2.18,10.01,2.22-1,2.15c12.36,2.69,22.52,14.45,35,15.45l-1.01,2.18,17,4.42-1.99,2.17c15.09,3.14,29.31,14.14,44,15.42l-1.01,2.18,5.01.02-1.01,2.18,58,19.8,18.01,2.22-1.01,2.18c16.28,3.71,34.86,7.38,52.29,11.05.7.15.73,1.97,1.43,2.11,7.3,1.47,17.77,1.75,25.29,2.26l-1.01,2.18,34.01,2.22-1.01,2.18c4.29.5,9.41-.63,13.56-.07,44.88,6,95.05,6.98,139.89,0,3.46-.54,7.94.56,11.56.07l-1.01-2.18,32.01-2.22-1.01-2.18c8.67,1.59,14.92-2.63,23.01-2.22l-1.01-2.18,30.01-4.42-1.01-2.18,22-4.42-2.99-2.17c13.19-2.32,28.43-6.45,41.22-11.11,4.5-1.64,12.43-6.83,16.54-8.64,1.6-.7,9.5-1.28,11.3-2.78,1.39-1.16-.47-3.61-.06-3.88.7-.48,5.85.46,8.19-.35,7.33-2.52,14.46-9.67,22.81-10.7l-1-2.15c8.24-.81,18.95-6.81,26.84-11.19.2-.11-.93-1.96-.84-2.01,1.67-.95,8.16-1.97,11.74-4.09,6.99-4.16,16.42-12.85,23.64-17.47,4.84-3.11,8.55-3.54,11.89-4.88l12.73-8.78c-2.91-2.57,4.55-3.21,6.64-4.77,3.65-2.73,9.75-10.59,13.36-13.44,1.1-.87,3.46,1.04,4,.62.29-.22-1.5-4.74,3.99-4.4-5-4.7.43-2.39,3.71-4.1.83-.43,12.89-10.18,14.42-11.45,4.39-3.64,9.21-10.46,13.64-14.05,1.14-.92,2.17-2.8,3.25-.09Z"/><path class="cj" d="M1386.87,659.02c-.64-.73,4.48-4.21,4.77-4.31,3.16-1.11,23.63-8.71,24.95-8.84,10.33-.99,9.9,10.05,13.18,19.11.4,1.11,3.03.49,3.09.65.35,1.02-1.06,5.04-.09,8.24,21.25,69.46,44.13,180.59,41.96,253.07-.4,13.44-4.17,9.27-10.86,11.5-.14.05,1.37,2.9-.48,3.23-.54.1-4.46-1.78-7.07-1.13-2.87.71-7.07,4.26-12.46,2.3l1.01,2.18c-23,1.6-43.94,9.03-66.58,8.71-.38,0-3.94,3.48-6.42.1.25-.38.62-.98,1-1.1,15.07-4.54,37.7-4.89,54.2-8.03,14.69-2.8,29.3-6.41,43.82-10.1,2.48-2.56-2.35-54.46-3.01-62.17-5.79-66.8-18.59-142.9-40-205.7-1.12-3.28-4.31-17.61-6.65-18.61-4.47-1.93-13.57,6.25-14.35,6.51-2.36.78-5.22,1.29-8,2.2-.56.18-1.45-.18-2,0-2.75.91-6.75,1.06-10,2.2Z"/><path class="ax" d="M1358.87,821.82c12.54,41.97,13.44,86.95,14,130.9-.38.12-.75.72-1,1.1-1.85-2.52-3.48-30.17-3.84-35.82-.1-1.62,1.49-3.07,1.37-5-.59-9.11-4.88-70.22-8.54-73.56l-2.98,3.28,1.99-7.68-3.78,2.98c-1.84,47.95-3.61,95.96-6.25,143.81-.43,7.85,1.85,16.98,1.05,24.29-.29,2.65-2.96,2.36-3.09,3.43-3.87,31.99-9.64,66.82-12.9,98.86-.28,2.78.42,15.24-.04,15.92-.26.39-2.63-1.58-2.98-1.1-1.09,1.48-1.5,15.23-4.01,17.6-.04-1.24.25-2.65-1-3.3,22.41-104.41,23.86-212.1,28-319,2.15-.06,2.77,2.03,4,3.3Z"/><path class="ak" d="M1335.87,677.72c2.05,8,2.41,19.03,5,27.5-7.42,3.71-13.67,10.83-20,16.5-2.9-1.66-2.35-5.96-3-8.8,0-5.05,0-13.54-5-15.4,1.83-1.77,4.05-4.65,6-6.6,5.33-5.33,10.49-10.8,15.51-16.49.25-.02,1.36,2.77,1.49,3.29Z"/><path class="at" d="M261.87,667.82c-.98,6.68.3,16.88,0,24.2-2.6,64.16-10.48,130.96-23,193.6-3.68,18.41-13.07,42.91-15,60.5-3.05,2.5-2.19-.75-1.9-2.64,1.28-8.4,4.64-17.39,6.66-25.68,19.89-81.66,28.3-162.88,31.24-248.36.09-2.71-.69-3.58,2-1.63Z"/><path class="ac" d="M239.87,886.72c-.07.35.07.75,0,1.1-3.85,19.24-8.96,38.07-13.01,57.19l4,.02-1.99,2.17c4.71-2.17,10.64,2,12.99,2.21,1.61.15,3.38.07,5,0,8.98,3.3,21.2,3.9,31.01,4.41l-1.01,2.18h57.5s-3.49,2.2-3.49,2.2c20.33-3.63,42.16-1.57,63.55-2.1,1.72-.04.83-2.41,3.94-2.43,1.45,0,5.96,3.52,8.5,3.44-.21.33-.7.64-1,1.1-61.43,2.85-121.54,3.95-182-9.9.05-.72-.08-1.49,0-2.2,1.93-17.59,11.32-42.09,15-60.5l1,1.1Z"/><path class="bw" d="M324.87,984.62c4.39,58.86,8.13,117.79,15.24,176.34l1.5,3.01c1.27,1.76,7.44,4.01,9.26,5.45,7.6,5.99,15.87,12.6,24,17.6v1.1c-2.18-1.29-9.55-3.03-10.01-3.31-.09-.05,1.03-1.86.82-1.99-2.44-1.59-6.21-2.01-6.81-2.41-.09-.06,1.1-2.11,1-2.17-1.25-.82-6.7-2.01-7.01-2.23-.11-.08,1.11-2.11,1.01-2.18-3.78-2.68-14.12-5.29-15.57-10.91-8.03-58.75-11.49-118.35-15.23-177.79.12-1.02,1.55-.29,1.79-.52Z"/><path class="d" d="M405.87,958.22c-.31.47-.47,1.42-1,2.2-3.53,2.6-7.21,4.51-11,6.6h-1l5.99-6.59c-32.92.55-66.25,4.19-99.52,2.22-8.92-.53-21.14-3.33-29.19-4.38-15.86-2.08-32.26-3.59-47.29-8.87l1-1.08c60.46,13.85,120.57,12.75,182,9.9Z"/><path class="cd" d="M277.87,670.02c-1.9,8.41-.88,17.75-1,26.4-2.5-.25-5.67-2.15-8-2.2l-7-2.2c.3-7.32-.98-17.52,0-24.2.18-1.21-.16-2.46,1-3.3,5.6.19,10.08,3.16,15,5.5Z"/><path class="br" d="M321.87,683.22c1.44.53,3.19,1.51,5,2.2,21.41,8.15,41.9,19.25,64,25.3.08,1.09-.05,2.21,0,3.3l-4,.02c4.26,2.28-.31,2.64-3,4.38,3.33-5.37-4.9-6.65-9-8.81l1.99-2.17-9-.02,1.01-2.18c-6.32.29-11.22-6.31-18-4.42l2.99-2.17-7-.02,1.01-2.18c-10.33-4.71-25.7-6.41-35.32-10.02-1.01-.38-3.54-4.89-3.91-5.03-6.45-2.49-14.17-1.99-19.78-6.96h-1l-1-1.1c11.57,1.2,24.02,5.84,35,9.9Z"/><path class="bs" d="M328.87,660.12c7.83,5.41,23.32,9.49,33,16.5,7.81,5.66,20.26,18.25,26,26.4.27,2.49,2.83,5.47,3,7.7-22.1-6.05-42.59-17.15-64-25.3l58.99,21.99c-1.77-11.72-13.35-16.12-20.78-22.2-.36-.3,2.58-2.76-2.23-2,2.21-3.09-8.88-6.96-11.99-8.8-.1-.06,1.11-2.12,1.01-2.17-5.51-3.15-15.72-5.41-22.61-9.24-.3-.17-4.61-3.56-.4-2.88Z"/><path class="u" d="M396.87,687.62c.43.29,2.16-.2,2.99.01l-1.99,2.17c7.15,0,11.38,10.64,18.99,8.83l-2.99,2.17,18.93,7.78.26,3.02c1.64,1.24,6.06,2.29,3.8,4.61,7.25-1.6,10.91,8.57,19,6.62l-1.99,4.38,13.01,4.42-1.01,2.18,6,.02-2.99,2.17c5.39-.82,12.07,7.28,14.99,8.81v1.1c-30.74-17.37-57.82-36.18-87-56.1v-2.2Z"/><path class="m" d="M358.87,660.12l15,14.3c-6.86-4.88-14.82-7.96-20.27-15.08-5.17-1.49-12.2-10.47-19.22-15.73-10.3,14.3,5.2,20.17,15.5,22.03-2.52,3.97,10.99,5.36,11.99,10.99-9.68-7.01-25.17-11.09-33-16.5-4.59-3.17.8-16.73,2.57-20.95,2.31-.6,23.31,17.96,27.43,20.95Z"/><path class="bx" d="M1327.87,1140.82c.54,14.89-9.61,33.43-9.21,49.26-7.74,3.32-12.88,11.69-21.8,12.35l1.01,2.18h-6.01s0-1.09,0-1.09c4.61-2.8,20.59-11.07,22.88-14.98,3.34-5.68,4.38-20.94,6.12-27.92,1.02-4.09.35-8.31,1-11,.05-.19,1.44-.89,2-3.3.36-1.55,2.2-5.05,3-8.8,1.25.65.96,2.06,1,3.3Z"/><path class="ca" d="M262.87,664.52l2.27-1.96c10.27,4.52,24.31,5.21,34.32,8.39.49.16,5.87,5.08,7.22,5.55,5.13,1.79,10.76,2.76,16.19,2.33l-1,4.39c-10.98-4.06-23.43-8.7-35-9.9-2.57-2.24-6.37-2.05-9-3.3-4.92-2.34-9.4-5.31-15-5.5Z"/><path class="ao" d="M1354.87,678.82c0,2.43.26,5.41,0,7.7-1,8.71-4.43,20.24-9,27.5-2.11-1.6-4.23-6.29-5-8.8-2.59-8.47-2.95-19.5-5-27.5l.99-2.73c1.32,10.27,8.7,53.14,14.58,20.38,1.15-6.39,1.09-13.04,2.37-20.48.26-1.52-4.92,1.11,1.06-2.67v6.6Z"/><path class="aa" d="M392.87,967.02h1c-21.51,11.86-45.11,16.31-69,17.6.1-.09-.37-1.96.68-2.21,21.98-1.26,41.66-6.56,62.32-13.2l-1.01-2.18h6.01Z"/><path class="cl" d="M358.87,660.12c1.72,1.25,4.51.76,5,1.11.09.07-1.1,2.11-1.01,2.18,1.49,1.02,9.58,4.06,12,6.05l-.99,2.75,5.99.03-1.99,2.17c1.59.34,10.52,4.06,11,4.43.08.06-.98,1.65-.66,1.9,2.78,2.11,5.86,5.02,8.65,6.89v2.2c-1.64-1.12-3.99-1.51-5-2.2-5.99-4.13-11.98-8.92-18-13.2l-15-14.3Z"/><path class="bd" d="M1396.87,656.82l-20.72,10.95c-8.19-.09-17.97,2.33-21.28,11.05v-6.6c7.49-4.73,23.29-10.16,32-13.2,3.25-1.14,7.25-1.29,10-2.2Z"/><path class="ar" d="M773.71,519.59c37.08-1.03,78.05,26.86,121.62,27.26,39.14.36,87.24-27.65,120.75-16.21,43.41,14.81,42.9,74.17,21.82,110.26-59.38,101.71-256.16,94.43-312.05-9.91-26.59-49.64-9.01-109.81,47.86-111.4ZM932.87,685.4c-36.14-62.04-127.21-92.86-188.9-65.32,38,65.14,124.12,82.44,188.9,65.32Z"/><path class="ar" d="M1050.87,495.12c-53.02-6.18-62.74-84.84-52.71-131.13,6.45-29.79,27.4-61.67,57.24-64.63,85.84-8.52,107.83,160.85,33.47,192.47,44.78-30.32,42.56-144.69-6.02-169.92-23.1-12-47.54-3.93-59.97,20.31,75.69-38.4,97.92,118.1,41.68,148.71-5.41,2.94-8.79,2.58-13.68,4.2ZM1051.59,352.36c-17.24,4.14-11.28,43.21,7.35,41.07,19.69-2.27,15.54-46.56-7.35-41.07Z"/><path class="ar" d="M731.87,333.42l1-13.2,9,1.1c33.37,48.04,24.68,180.32-41,173.8-10.31-1.02-20.16-8.31-27-16.5,2.96-1.61,1.66-1.41.62-3.41-7.92-15.28-11.7-19.64-14.45-37.83-1.1-7.27-2.28-22.9-2.2-31.94.03-3.36,1.83-20.73,2.95-22.91.85-1.67,2.96.27,4.16-1.42,1.72-2.41-1.65-10.06.98-14.08,1.46-2.22,4.48-1.41,5.47-2.78,3.75-5.23.41-12.92,7.28-13.77l-1.8-4.96c12.92-14.22,24.95-18.57,43.19-15.06,2.16.42,15.1,7.57,11.81,2.96ZM718.58,345.76c-17.47,4.72-12.09,46.98,9.55,42.39,18.26-3.87,14.32-48.84-9.55-42.39Z"/><path class="as" d="M950.65,101.63c26.81-2.93,74.65,28.43,66.43,62.06-9.59,39.24-93.31,3.8-89.98-39.51,1.02-13.25,12.21-21.31,23.55-22.55Z"/><path class="v" d="M741.87,321.32l-9-1.1-1,13.2c-44.09-58.56-96.07-3.81-102.85,54.61-3.81,32.79,5.23,86.03,32.85,104.89-52.7-22.1-55.45-107-33.17-154.73,23.81-51.02,79.26-65.68,113.17-16.87Z"/><path class="aj" d="M678.65,209.43c8.34-1.1,32,.36,35,11.48,4.1,15.2-22.03,11.18-31.42,13.35-3.97.92-8.96,2.94-12.71,4.72-6.23,2.95-28.64,23.57-26.45.69,1.46-15.25,23-28.59,35.59-30.24Z"/><path class="n" d="M1102.61,253.92c-6.03,5.26-27.01-11.32-36.73-13.46s-36.38,3.44-30.84-12.92c5.08-15.02,33.02-13.65,44.09-9.36,8.35,3.24,35.04,25.65,23.48,35.73Z"/><path class="e" d="M868.87,751.42c.64-2.32-.28-2.31,2.71-3.02,8.09-1.93,21.98-.13,31.65-1.53,12.8-1.86,24.99-6.97,37.64-8.65.09,1.08-.11,2.22,0,3.3-17.15,23.45-49.74,25.91-72,9.9Z"/><path class="bk" d="M940.87,741.52c1.97,21.16-29.96,35.16-46.24,32.71-7.4-1.11-28.45-13-25.76-22.81,22.26,16.01,54.85,13.55,72-9.9Z"/><path class="bf" d="M723.87,1356.42c39.21,7.84,79.15,13.32,119,15.4l-2.5,5.48c-3.37-5.77-8.61-1.48-13.78-1.94-3.61,4.02-13.83,2.03-19.15.92-9.93,16.66,5.37,9.13,12.22,12.82,2.44,1.32,2.44,5.35,3.73,5.81.96.34,6.37-7.78,10.77-6.46,2.07.62,2.73,4.67,4.99,5.7,3.7,1.69,5.71-2.57,6.22-2.51,1.09.11,2.07,5.99,6.99,6.68,3.07.43,19.57-1.89,23.77-2.56,2.97-.48,6.27-4.79,7.22-4.9,1.88-.23,9.11,6.04,12.27-.88l-.76-8.25c-.85-1.06-5.23,4.71-7.55,1.1-2.05-16.61,11.94-4.53,20.55-9.92,14.09-.02,29.33-1.55,43-1.1,2.66.09,5.34-.08,8,.01-2.37,4.69-10.42,3.85-15.23,4.68-1.57.27-3.16,3-5.36,3.03-3.83.05-3.25-3.74-5.06-4.3-1.12-.35-7.58,1.39-9.89,1.54-6.95.43-6.16,1.42-11.33,2.18-3.66.54-10.57-2.53-16.13,1.67,3.77,10.11,6.63,3.92,10.51,4.31,2.9.29,14.88,13.13,22.49,7.79-6.41,7.12,3.29,8.76-1.63,16.55-5.42-2-10.76,1.76-14.82,2.19-9.5,1-30.16.57-39.96-.08-11.05-.74-11.38-6.45-12.12-6.6-1.14-.24-3.07,2.06-4.14,1.99-1.7-.12-4.91-2.56-6.68-.94-1.25,1.14.72,6.54-6.13,5.56-7.55-1.08,8.67-4.93-2.91-6.65-.78,7.33-2.63,7.55-10.2,8.75-14.14,2.26-40.42-1.37-54.87-2.14-10.8-.57-21.17.8-31.86-2.1l-1.44-2.82,9.7-10.01c2.56-7.31-15.57-6.38-4.42-13.59,6.4-4.13,8.01,6.74,12.54,2.81,2.67-2.32-2.31-7.87,2.96-13.27,6.05-6.21,12.79,4.67,11.55-3.93-11.49-.71-22.72-3.9-34.13-5.44-2.54-.34-7.69,1.49-8.43,1.11-.9-.46.18-4.29,0-4.39-1.95-1.02-7.96,1.66-10.03-1.63l2.03-1.68Z"/><path class="aq" d="M907.87,1372.92c-8.61,5.38-22.6-6.69-20.55,9.92,2.32,3.61,6.7-2.16,7.55-1.1l.76,8.25c-3.16,6.92-10.39.65-12.27.88-.95.11-4.25,4.42-7.22,4.9-4.2.67-20.7,2.99-23.77,2.56-4.92-.69-5.91-6.57-6.99-6.68-.51-.05-2.52,4.2-6.22,2.51-2.26-1.03-2.92-5.08-4.99-5.7-4.4-1.31-9.81,6.81-10.77,6.46-1.28-.46-1.29-4.5-3.73-5.81-6.85-3.69-22.16,3.83-12.22-12.82,5.32,1.11,15.54,3.1,19.15-.92,5.17.46,10.41-3.83,13.78,1.94l2.5-5.48c21.65,1.13,43.32,1.13,65,1.1Z"/><path class="ap" d="M1286.87,1203.52c-1.28,2.24-1.66,2.39,1,2.2-228.54,132.67-640.55,118.71-873,2.2v-2.2c.86.76,12.83,5.61,15.01,5.51l-1.01,2.18,15.01,4.42-1.01,2.18,11.01,2.22-1.01,2.18,11.01,2.22-1.01,2.18,31.01,8.82-1.01,2.18,24.01,6.62-1.01,2.18,23.01,4.42-1.01,2.18c23.53,2.9,45.31,13.91,69,15.42l-2.99,2.17c12.83.59,24.02,2.37,36.27,4.46.73.13.42,1.98,2.17,2.23,3.8.55,8.6-.57,12.55-.07l-2.99,2.17,55,8.8c7.66,1.23,18.37-2.67,24.44,2.3l60.56,2.13-.5,2.2c35.31-1.04,70.83,1.33,106.12.08,14.47-.51,33.56-3.65,47.82-4.57,16.77-1.08,33.76-1.59,50.55-2.13l-3.99-2.17,33.99-2.23-2.99-2.17c10.55,1.39,19.18-1.99,29-2.22l-1.01-2.18,13.01-.02-1.01-2.18,34.01-4.42,89-24.2-1.01-2.18,5.01-.02-1.01-2.18c6.25.4,14.25-2.8,19.73-6.56l24.27-6.66-1.99-2.17,17.25-4.47c7.54-8.1,32.81-14.31,38.75-20.85Z"/><path class="l" d="M1291.87,1203.52c-1.3.79-2.68,1.44-4,2.2-2.66.19-2.28.04-1-2.2,3.84-4.23,8.08-21.19,9-27.5,8.52-4.39,17.53-8.94,25-15.4-1.74,6.98-2.78,22.24-6.12,27.92-2.29,3.91-18.27,12.18-22.88,14.98Z"/><path class="au" d="M352.87,1169.42c10.49,8.44,25.86,16.76,38.01,22.01l-1.01,2.18c10.08,1.45,15.77,8.64,24.01,11.01.32.36.65.79,1,1.1v2.2c-12.64-6.33-28.06-13.56-40-20.9-8.13-5-16.4-11.61-24-17.6h2Z"/><path class="z" d="M396.87,689.82c29.18,19.92,56.26,38.73,87,56.1,259.04,146.34,597.48,176.16,829-48.4,5,1.86,5.01,10.35,5,15.4-.74-3.21-2.37-6.34-2.01-9.91-4.55,3.1.98-2.41-2.47-2.17-2.1,3.66-4.8,3.59-6.24,4.73-5.91,4.66-12.52,12.66-18.53,17.6-1.68,1.38-4.39,1.58-4.75,1.88-.09.07,1.11,2.08,1.01,2.16-.41.33-2.77-.56-3.78.26-7.09,5.72-13.88,15.05-23.22,17.36l1.99,2.17-10,4.43c2.83,2.91-5.41,3.31-7.76,4.67-13.66,7.85-27.75,20.89-42.3,28.79-6.15,3.34-13.38,5.94-19.92,8.37l1,2.15-7.01.02,1.01,2.18-9.01,2.22,1.01,2.18c-7.69-.81-12.73,7.78-20.01,6.62l1.01,2.18-11.01,2.22,1.01,2.18-12.01,2.22-43,15.4,1.01,2.18-7.01.02,1.01,2.18-10,.02,1.99,2.17c-14.62,1.41-27.97,9.37-41.99,8.83l2.99,2.17c-16.91-.02-32.17,6.26-49.58,8.72-51.14,7.21-100.04,6.69-150.87,2.25-13.07-1.14-26.42-1.83-39.54-2.16l1.99-2.17c-12.41-.99-27.12-2.16-39.27-4.46-1.13-.21-10.24-4.05-11.44-4.3-9.5-1.98-19.66-3.12-29.28-4.46l-85.01-26.4,1.01-2.18-6.01-.02,1.01-2.18-12.01-2.22,1.01-2.18c-9.62-1.61-20.41-5.63-28.75-10.95l-5.27-.07,1.01-2.18c-10.78-3.97-23.31-8.19-34.17-13.35-8.29-3.94-17.79-12.61-26.84-13.07l1.01-2.18c-7.05,2.2-10.09-7.94-17.01-6.62l1.01-2.18c-9.63-3.85-21.65-7.93-31.01-13.22-.1-.06,1.11-2.12,1.01-2.18-2-1.22-10.3-3.23-12-4.44-.09-.07,1.1-2.1,1.01-2.16-.55-.35-2.5.33-3.03-.02-.1-.06,1.12-2.12,1.02-2.18-.85-.57-5.13.55-6.01-.02-.09-.06,1.03-1.89.85-2.01-10.9-7.17-22.95-15.01-34.85-19.99,2.69-2.27-6.45-4.53-8.89-6.17-4.74-3.18-10.76-8.22-15.69-11.87-.66-.49-6.65-4.64-4.42-6.15,1.01.69,3.36,1.08,5,2.2Z"/><path class="bn" d="M1406.87,654.62c4.63,3.63,5.99,9.76,8,15.4,21.1,59.1,32.69,143.42,39,206.8,1.96,19.7,3.56,39.59,5,59.4-4.1,1.13-9.09,1.36-13,2.2,1.06-5.7-1-13.13-1-18.15v-18.7c0-5.9-1.43-15.14-2-21.45-6.13-67.94-18.96-143.83-40-207.9-1.64-4.98-3.83-9.95-4-15.4,2.78-.91,5.64-1.42,8-2.2Z"/><path class="ad" d="M1398.87,656.82c.17,5.45,2.36,10.42,4,15.4l-48,14.3c.26-2.29,0-5.27,0-7.7,3.3-8.72,13.08-11.14,21.28-11.05l20.72-10.95c.55-.18,1.44.18,2,0Z"/><path class="bj" d="M1358.87,821.82c3.56,3.68,4.16,5.13,6,11,10.66,34.06,7.31,80.72,10.15,116.43l27.84-2.05-1.99-2.17c4.27-.52,9.43.64,13.55.07,9.12-1.26,21.34-4.5,31.44-6.68,3.91-.84,8.9-1.07,13-2.2.9-.25,4.78-4.39,9-2.21,3.13-19.22-.25-41.67-2-61.59.56-.16,1.38.11,2,0,.67,7.71,5.49,59.62,3.01,62.17-14.52,3.68-29.13,7.3-43.82,10.1-16.5,3.14-39.13,3.49-54.2,8.03-.56-43.95-1.46-88.93-14-130.9Z"/><path class="r" d="M1467.87,872.42c-.62.11-1.44-.16-2,0-2.74-31.09-6.74-61.77-12.01-92.41l-1.98,1.11c-.25-4.04.48-8.35-.29-12.35-2.34-12.21-21.02-97.88-26.37-99.72-.79-.27-5.3.94-7.35.97l10-3.3c21.41,62.8,34.21,138.9,40,205.7Z"/><path class="by" d="M1427.87,666.72l-10,3.3c-1,.01-2,0-3,0-2.01-5.64-3.37-11.77-8-15.4.78-.26,9.88-8.44,14.35-6.51,2.34,1,5.53,15.33,6.65,18.61Z"/><path class="an" d="M1442.87,880.12c-14.67,1.22-31.73,10.97-46.07,3.93-14.66-7.2-21.1-38.9-31.93-51.23-1.84-5.87-2.44-7.32-6-11-1.23-1.27-1.85-3.36-4-3.3v-1.1l-1.67-2.03c-4.45-1.37-8.3,3.02-10.74,6.54-12.23,17.67-13.66,146.8-16.61,178.62-4.92,52.96-16.53,101.83-23.73,153.23-.3,2.13-1.27,4.1,1.75,3.54-260.38,131.73-619.57,131.86-883,8.8l20.48,4.4,1.39-2.56c-6.27-16.37,17.64-14.23,18.14-27.13l-3.99-1.1c5.16-3.05,9.45-.41,15.47-1.14,2.08-.25,2.89-2.88,5.07-3.3,5.07-.98,11.95,13.42,15.94,13.34,4.59-.09,3.14-4.24,3.52-4.52.71-.53,10,4.08,6.18-5.22l2.29-2.47c3.42,2.05-.53,8.63.53,9.89.37.44,7.47-1.39,10.96.6,6.2,3.53,3.38,15.75,13.31,10.45,1.12-.6,1.47-3.27,2.7-3.95.48-.27,13.22.98,5.6-4.98-2.81-2.2-11.46.68-9.57-3.18,4.54-.06,1.72-6.3,4.99-8.31,2.62-1.61,10.94,3.03,9.73-2.2-.51-2.21-7.42-4.12-8.2-3.85-1.31.44.27,6.02-4.53,3.33,5.47-6.88-6.25-12.98,4.3-11.87,3.11.32,5.61,8.36,13.63-1.94,8.35-10.73-5.2-8.57-3.46-14.79,1.24-4.41,12.66-1.71,14.04-10.97,6.86,7.23-8.53,13.6,1.1,19.66,9.11,5.73,2.44-5.32,5.98-11.88s4.03-.17,4.89-.11c7,.5,3.21-16.84,1.51-20.87l10.95-5.09c-9.71-8.16-2.76-16.63-4.95-27.92-4.04-.61-.3,8.04-4.62,8.72-8.69,1.37,1.97-15.27,3.63-15.98,2.28-.98,4.51,3.86,6.52.67.68-1.08,2.32-12.9,2.93-15.47.51-2.15,3.21-3.77,3.43-5.14.61-3.79-4.3-5.21-4.74-7.7-.51-2.86,2.62-5.9,2.42-8.55-.52-6.68-8.71-14.78,3.95-16.02,1.03-.1,15,.9,15.75,1.16,1.36.47,1.98,5.25,5.3,5.55,3.61.33,5.35-5.15,6.93-5.28,1.28-.1,4.4,4.27,6.46,2.98.48-.3,5.25-9.84,4.89-10.79-3.24-8.47-19.6,8.48-20.67.22s5.87-3.35,7.2-4.67c4.22-4.18-2.99-11.46,10.62-1.22,3.6-9.38-1.46-5.93-3.98-12.09,8.91.25,4.76-4.58,6.01-6.61.24-.39,2.72,2.96,4.52,3.26,4.94.82,9.6-1.31,14.48-1.07,1.49-4.75-4.27-5.67-4.52-9.82-.14-2.35,2.6-15.89,5.45-8.19,1.12,3.03-6.79,14.7,8.06,9.21l-2.94,7,2.6,2.64,3.2-1.02c-5.77-10.65,17.26-24.65,18.19-16.86.76,6.33-19.34,25-1.59,15.97l1.54,3.24c-4.76-.41-3.98,4.69-6.6,6.51s-9.8,1.95-11.48,4.97c-2.02,3.63-.37,12.18-4.95,17.65-.34.41-7.96,6.04-8.47,6.06s-2.09-3.09-2.99-2.96c-2.82.39-13.74,1.95-14.42,4.75l.89,3.22c12.54.78,7.85,9,6.22,16.71-.39,1.84,1.28,4.32.7,6.17-.77,2.46-4.39,2.42-4.74,3.12-1.07,2.15.88,5.9.31,7.61-.29.86-7.7,6.32-7.46,12.6.03.8,6.78,13.32,7.48,13.51.77.21,2.88-2.37,3.49-1.99.29.18,1.06,5.41,2.14,7.01,7.11,10.58,4.08-8.71,4.82-9.6,1.31-1.57,3.67-.12,5.02-1.28,5.74-4.95,1.82-10.2,6.04-17.03.82,7,6.66,18.32,10.95,23.72,5.03,6.33,13.54,11.53,21.05,13.7l-1.01,2.18c2.38-.73,7.49,1.06,8.01,4.41-4.18-1.41-16.59-8.1-19.99-6.11-3.02,1.77-1.76,8.41-3.24,10.24-1.05,1.3-6.76,1.25-6.74,3.02.02,1.92,9.09.95,4.98,7.15-4.63-3.11-7.18-8.39-12-3.3-4.08-3.7.16-5.82-.44-8.74-1.45-7.01-10.76-5.17-12.44-6.8-.58-.56.24-3.88-.12-4.24-.46-.45-11.41-2.92-12.02-2.85-9.74,1.13-6,13.35-12.95,11.99,1.04-9.64-8.98-12.43-11.63-4.04-2.22,7.03,4.26,16.61-1.38,24.58l9.99-2.18c3.45,15.15-6.46,11.42-9.99,23.6l6.06,1.22c-2.55-8.7,10.27-15.49,13.93-11.63.73.77-3.42,13.84.92,21.53.57,1,16.33,13.55,17.36,13.9,5.26,1.82,8.1-.48,11.1.06.74.13,7.68,7.63,8.59,2.46.74-4.2-7.09-3.61-8-4.38-1-.86-2.03-5.43-3.97-7.18,11.41,5.59,22,13.77,35.01,14.31l-1.01,2.18c22.05,2.55,46.29,5.79,68.01-4.4-2.74-4.23,2.45-1.15,4-2.2.09-.06-1.11-2.11-1.01-2.18.65-.48,7.66-4.11,7.98-4.45.14-.15-1.08-2.02-.97-2.14.2-.23,2.07.58,3.1-.73,15.88-20.12,16.98-54.26,2.91-74.08-.22-.31-2.78.29-3.03-.02-.09-.12,1.1-1.38.4-2.17-9.01-10.05-26.83-18.78-39.39-22.03l1.01-2.18-15.01-4.42c2.74-2.41-6.39-3.01-8.68-6.94-14.74-25.24,38.67-8.08,47.82-3.9,2,.92,10.4,8.72,12.38,8.64l.49-2.19c2.97-2.29,10.03-17.09,12-22l1.48,8.82c2.85,3.12.17-1.93,2.51-2.21l.95,6.14c12.09,2,7.56-1.16,10.56-3.96,1.96-1.83,5.2-.57,6.33-4.08.52-1.6-2.35-23.42-1.82-24.5.09-.18,2.71.34,2.87-.1,4.97-13.62,1.01-14.21,16.13-8.72,4.03-4.94-16.83-19.63-19.67-24.08-3.58,6.24-9.33,3.01-13.05,5.69-4.17,3-1.94,10.57-15.27,6.29l3-10.99c3.37-.48,2.44,4.41,4.63,5.42,4.9,2.26,8.85-5.76,1.37-7.07l10.07-2.14c1.78-2.35-7.28-11.49,6.91-11.62v6.6c.56.74,13.32-5.7,16.74-5.2,3.52.51,7.35,10.35,5.22-3.57-13.26,6.42-9.69-2.69-12.93-5.04-2.83-2.06-6.33,2.75-10.3,1.52-4.6-1.42-5.57-14.65-11.24-.93-5.53-4.18,3.04-12.48,7.49-13.16l-37-1.12c-1.68-16.37,19.62-9.91,23.98-21.45l-18.98-3.85c1.54,2.67-2.74,11.89-4.99,8.8-.88-1.22,1.93-6.94-2.51-7.67-8.44,12.84-1.1,13.52.3,20.54.34,1.71-1.6,7.17-.8,8.02.57.61,11.34-.57,15.74,1.95,2.01,1.15,14.02,12.64,14.33,15.07,2,15.66-14.54-1.3-12.54,8.28l4.48-1.09-.47,5.52c-12.69-5.37-12.99,8.74-14.54,9.87-2.49,1.81-7.9-8.41-11.55-3.33-4.01,5.59,9.76,10,9.57,14.33-20.07-7.1-35.88-7.67-57-6.6,6.36-3.93,14.32-1.58,21.28-2.18l6.73-4.41c-12.06.06-3.32-18.44-16.49-4.42l-2.17-10.73-3.01-2.23c-8.08.6.58,16.79-7.35,11.33-1.77-1.22-2.2-7.46-6.73-8.08-3.21-.44-14.56,7.27-8.75-3.47l5.48,3.29c-14.61-25.91,10.14-7.47,10-20.37-.03-2.79-4.38-1.17-5.59-6.01-1.56-6.22,5.03-10.06-5.41-8.82,2.23-2.97-1.32-12.62-1-13.18.12-.2,2.99.15,4.07-1.58.77-1.23,6.02-10.44,5.99-11.08-.16-3.09-2.97-1.99-4.14-3.48-.78-.99-.65-4.44-.97-4.71-5.44-4.46-7.31,13.61-7.94,14.24-.56.55-11.25-3.74-14.46,1.12,1.11,5.43-5.21,11.15-5.55,13.79-1,7.66,7.96,6.32-4.45,18.11-2.16,2.05-4.69,1.73-7.04,3.27-1.09.71-1.32,4.29-1.5,4.4-1.06.66-3.62-2.01-4.48-1.79-1.9.49-7.77,4.69-9.5,2.89-.57-.6,1.38-4.02.59-5.52-1.24-2.37-5.76-.52-7.07-2.12-3.52-4.31-5.63-26.95-8.52-34.14,5.02,1.02,30.73-2.18,27.53-12.06-1.47-4.55-7.82-2.82-8.49-3.41-.28-.24-.14-5.59-1.21-6.37-.88-.65-4.2.13-5.96-.62s-1.9-2.78-2.54-2.88c-3.45-.51-15.12,4.15-18.08-2.39-2.74-6.04,3.37-.8,4.13-.92.5-.08,5.75-7.16,5.61-7.63-.13-.43-5.66-5.83-6-6.07-1.57-1.08-4.77-.28-6.76-1.27-1.62-.81-2.28-4.44-4.9-4.58-.43-.02-8.02,1.69-8.34,2-.66.64,1.58,5.57.99,6.56-.41.68-5.68.79-6.96,1.72-1.86,1.36-2.54,4.76-4.03,5.46-.86.41-15.39,1.68-16.06,1.19-1.45-1.06-2.9-12.73-4.48-14.89s-5.47-1.81-6.42-3.93c-1.26-2.79,2.79-4.29,4.5-3.88.8.19,6.16,11.65,7.41,2.67.34-2.43-6.98-14.91-9.94-16.9,238.69,111.03,487.27,106.09,708.3-48.61,18.68-13.08,65.02-46.13,76.7-64.69,4.57-7.26,8-18.79,9-27.5l48-14.3c21.04,64.07,33.87,139.96,40,207.9ZM1097.87,1063.82l4.98-6.59,15.99,87.48,8.03.51-1.01-2.18,33-4.42-1.99-2.17c8.45,2.15,3.48-15.82,2.71-21.16-4.69-32.58-20.17-119.41-30.78-147.56-5.86-15.56-14.09-1.91-25.95-5.09l1.01,2.18-9.01.02,1.01,2.18c-4.79-.36-9.07-.2-13.05,3l-23.46,87.25-40.76-76.85c-7.92-4.35-18.07,2.16-27.73-.17l2.99,2.17-17,.02c2.37,3.33-1.19,1.72-2,3.29-.44.86-3.02,1.77-2.06,4.88l2.06,100.72c-.3-26.41-3.5-53.78-5.68-79.89-1.45-17.37,9.69-20.66-18.38-20.86-.81,32.17,3.15,64.7,1.08,96.93-.18,2.83-1.82,4.81-2.09,7.7s.47,13.23-.04,15.19-2.84,1.65-2.89,1.83l-.23-125.22c-13.24-3.16-29.98.65-44.3.89-4.29,4,4.49,100.89-5.28,122.9-6.75,15.21-22.28,12.8-35.2,12.42l1.01-2.18c-1.63.68-4.99-1.15-6.01-2.21-8.57-8.95-9.69-26.62-10.08-39.06-.97-30.49,4.72-61.68,2.2-92.26-1.75-2.71-39.46-4.47-42.68-3.59-1.19.33-2.02,2.83-2.44,4.02-2.17,6.22-3.84,52.24-4.04,62.11-.79,39.81-4.07,78.09,26.01,104.03.12.1-1.06,2.03-.94,2.12,17.77,14.03,40.6,17.47,61.97,15.44,11.55-1.1,25.96-7.66,35-15.4l5.01,1.65-5.01,6.04c10.09-5.42,14.94,7.25,19.51-7.68,8.61,11.63,9.44-4.79,12.91-10,2.83-4.25,7.79-4.18,10.13-6.46,10.59-10.33,10.62-31.46,10.45-46.26l3,62.7c.14,1.78.12,8.15,1.63,8.87,13.93.56,27.65-2.07,41.37-4.47h2s-2.99-90.2-2.99-90.2l30.74,54.93c5.25,1.34,30.06-2.26,33.72-6.57,3.15-3.71,12.29-47.15,13.53-54.97ZM589.64,1097.67c.58-.7,1.6-7.94,5.26-9.18,2.64-.9,4.07,3.03,6.53,2.82,5.57-.48-1.8-14.07-2.59-17.1-.88-3.36,2.26-10-4.47-14.77-3.52,9.2-4.31,17.21-10.55,24.71-.62.74-3.18.23-3.69.83-6.01,7.05,6.87,8.46,2.75,17.33,1.01-.8,6.5-4.32,6.77-4.64ZM470.86,1173.82c-1.89-1.38-11.66,4.53-2.76,9.07,8.98,4.58,20.55,6.74,29.76,10.06,9.53,3.43,18.42,11.07,29.01,8.36.19-3.91-6.01-2.58-7.5-5.49-1.02-2-.26-8.82-1.61-9.8-2.3-1.66-22.22,8.93-17.07-3.73-6.36-8.26-4.39,3.27-4.83,3.61-2.55,1.98-19.82-4.76-23.58-7.62-1.57-1.2-1.26-4.34-1.44-4.47ZM588.57,1176.37c-5.07-3.87-3.99,2.84-7.18,3.02-1.7.1-2.93-3.93-8.01-3.47-14,1.28-.79,14.46-7.32,23.95l1.27,2.65,13.09-4.45.45-3.35h-7c8.36-21.42,8.59,2.61,16.04,7.1,4.93,2.97,13.74-.83,19.5.66,2.68-14.99-9.31-5.75-14.3-10.21-1.31-1.17-2.92-13.14-6.53-15.9ZM582.54,1212.05c.04-1.33,1.08-2.62-.7-3.55-12.09-6.99-10.84,7.67-19.96,1.62-4.45,5.1,26.6,13.67,26.97,8.24-1.24-2.72-6.98-2.91-7.97-3.87-1.79-1.72,1.66-2.29,1.67-2.45ZM592.08,1213.17c-.35-.07-.95-2.57-1.7-3.06l-2.51.56c2.03,10.46,14.98,14.88,23.57,16.98,2.78.68,22.86,3.17,23.43,1.69-.7-3.23-5.16-2.56-7.54-4.87-1.81-1.75-7.16-10.76-10.41-11.74-4.59-1.39-19.88,1.39-24.83.44ZM669.82,1225.57c-2.13-1.62-7.98,3.54-10.72,4.15-3.01.67-8.16-2.27-10.64.08-4.75,4.5,12.72,8.18,13.71,7.89.41-.12,3.94-7.23,6.7-4.46.56.56-4.51,7.88,10,4.38-.91-3.38-8.04-1.9-8.98-3.34-.23-.35,1.26-7.68-.07-8.69Z"/><path class="bc" d="M1354.87,817.42v1.1c-4.14,106.9-5.59,214.59-28,319-.8,3.75-2.64,7.25-3,8.8,5.43-26.88,8.31-53.65,12.03-80.65.75-5.44.25-11.44,1.03-17.74,3.27-26.57,5.3-44.84,7.28-72.51.12-1.73,1.59-3.79,1.79-6.8.15-2.16-2.19-1.21-2.13-2.14.03-.5,2.82-1.96,2.98-4.5,2.26-36.03,4.43-72.76,5.04-108.87.16-9.6-4.38-29.42,2.97-35.69Z"/><path class="ce" d="M361.87,676.62c-1.01-5.63-14.51-7.02-11.99-10.99-10.3-1.86-25.8-7.73-15.5-22.03,7.02,5.27,14.05,14.24,19.22,15.73,5.45,7.12,13.41,10.2,20.27,15.08,6.02,4.28,12.01,9.07,18,13.2-2.23,1.51,3.76,5.66,4.42,6.15,4.93,3.65,10.95,8.69,15.69,11.87,2.44,1.64,11.59,3.9,8.89,6.17,11.9,4.97,23.94,12.81,34.85,19.99.19.12-.93,1.95-.85,2.01.88.57,5.16-.55,6.01.02.1.06-1.12,2.12-1.02,2.18.53.35,2.49-.33,3.03.02.1.06-1.1,2.1-1.01,2.16,1.69,1.21,9.99,3.22,12,4.44.1.06-1.11,2.12-1.01,2.18,9.36,5.29,21.38,9.37,31.01,13.22l-1.01,2.18c6.92-1.32,9.96,8.82,17.01,6.62l-1.01,2.18c9.05.46,18.54,9.13,26.84,13.07,10.86,5.16,23.39,9.38,34.17,13.35l-1.01,2.18,5.27.07c8.34,5.32,19.13,9.33,28.75,10.95l-1.01,2.18,12.01,2.22-1.01,2.18,6.01.02-1.01,2.18,85.01,26.4c9.62,1.34,19.78,2.48,29.28,4.46,1.2.25,10.31,4.09,11.44,4.3,12.15,2.31,26.86,3.47,39.27,4.46l-1.99,2.17c13.11.33,26.47,1.02,39.54,2.16,50.83,4.44,99.73,4.96,150.87-2.25,17.42-2.45,32.67-8.73,49.58-8.72l-2.99-2.17c14.02.54,27.36-7.42,41.99-8.83l-1.99-2.17,10-.02-1.01-2.18,7.01-.02-1.01-2.18,43-15.4,12.01-2.22-1.01-2.18,11.01-2.22-1.01-2.18c7.28,1.15,12.32-7.43,20.01-6.62l-1.01-2.18,9.01-2.22-1.01-2.18,7.01-.02-1-2.15c6.54-2.43,13.78-5.03,19.92-8.37,14.55-7.9,28.64-20.94,42.3-28.79,2.36-1.35,10.6-1.76,7.76-4.67l10-4.43-1.99-2.17c9.34-2.32,16.13-11.64,23.22-17.36,1.01-.82,3.37.07,3.78-.26.1-.08-1.1-2.09-1.01-2.16.37-.3,3.07-.49,4.75-1.88,6.01-4.94,12.62-12.94,18.53-17.6,1.44-1.14,4.15-1.08,6.24-4.73,3.45-.24-2.08,5.27,2.47,2.17-.36,3.57,1.27,6.7,2.01,9.91.65,2.84.1,7.14,3,8.8-280.74,251.37-614.57,197.08-906,5.5-4.23-2.78-8.55-6.98-13.05-9.3-1.21-.62-7.03-2.59-8.95-2.8,1.19-6.14-2.39-8.4-5-12.1-5.74-8.15-18.19-20.74-26-26.4Z"/><path class="am" d="M1340.87,705.22c.77,2.51,2.89,7.2,5,8.8-11.67,18.56-58.01,51.61-76.7,64.69-221.04,154.7-469.62,159.65-708.3,48.61-52.79-24.56-100.66-55.46-150-86.9l4-13.2c291.43,191.58,625.26,245.87,906-5.5,6.33-5.67,12.58-12.79,20-16.5Z"/><path class="ck" d="M268.87,694.22c-1.67-.04-3.34,0-5.01,0-1.03,65.13-11.38,129.17-23.99,192.51l-1-1.1c12.52-62.64,20.4-129.44,23-193.6l7,2.2Z"/><path class="cc" d="M386.87,720.62c-.19,1.43-1.5,4.23-.92,5.38.72,1.4,21.83,12.45,24.92,14.42,49.34,31.44,97.21,62.34,150,86.9,2.97,1.99,10.28,14.48,9.94,16.9-1.25,8.98-6.61-2.48-7.41-2.67-1.71-.41-5.75,1.08-4.5,3.88.95,2.12,4.8,1.71,6.42,3.93s3.03,13.83,4.48,14.89c.67.49,15.21-.78,16.06-1.19,1.49-.71,2.17-4.11,4.03-5.46,1.28-.93,6.55-1.04,6.96-1.72.6-.99-1.65-5.92-.99-6.56.32-.31,7.91-2.02,8.34-2,2.62.14,3.27,3.77,4.9,4.58,1.99.99,5.19.2,6.76,1.27.35.24,5.88,5.64,6,6.07.14.47-5.11,7.55-5.61,7.63-.75.12-6.86-5.12-4.13.92,2.96,6.54,14.63,1.88,18.08,2.39.64.09.69,2.09,2.54,2.88s5.08-.03,5.96.62c1.06.78.93,6.13,1.21,6.37.67.59,7.01-1.15,8.49,3.41,3.2,9.89-22.52,13.09-27.53,12.06,2.89,7.19,5.01,29.83,8.52,34.14,1.31,1.6,5.83-.25,7.07,2.12.79,1.5-1.17,4.92-.59,5.52,1.72,1.81,7.6-2.4,9.5-2.89.86-.22,3.42,2.45,4.48,1.79.19-.12.42-3.69,1.5-4.4,2.35-1.54,4.87-1.22,7.04-3.27,12.41-11.79,3.45-10.44,4.45-18.11.34-2.64,6.67-8.36,5.55-13.79,3.22-4.87,13.91-.58,14.46-1.12.63-.63,2.51-18.7,7.94-14.24.33.27.19,3.73.97,4.71,1.17,1.49,3.99.38,4.14,3.48.03.64-5.22,9.86-5.99,11.08-1.08,1.73-3.95,1.38-4.07,1.58-.32.56,3.24,10.21,1,13.18,10.44-1.24,3.84,2.6,5.41,8.82,1.22,4.85,5.56,3.23,5.59,6.01.13,12.9-24.61-5.55-10,20.37l-5.48-3.29c-5.81,10.74,5.54,3.03,8.75,3.47,4.53.62,4.96,6.86,6.73,8.08,7.93,5.46-.73-10.73,7.35-11.33l3.01,2.23,2.17,10.73c13.16-14.02,4.43,4.48,16.49,4.42l-6.73,4.41c-6.96.6-14.92-1.75-21.28,2.18h-3.99s1.99,2.19,1.99,2.19l-14,2.22,1.01,2.18c-22.06,7.12-30.75,38.17-28.01,61.61-4.22,6.83-.3,12.08-6.04,17.03-1.35,1.16-3.71-.29-5.02,1.28-.74.89,2.29,20.17-4.82,9.6-1.07-1.6-1.85-6.82-2.14-7.01-.61-.39-2.72,2.19-3.49,1.99-.7-.19-7.45-12.71-7.48-13.51-.24-6.28,7.17-11.75,7.46-12.6.57-1.71-1.38-5.46-.31-7.61.35-.7,3.97-.66,4.74-3.12.58-1.84-1.09-4.33-.7-6.17,1.63-7.71,6.32-15.93-6.22-16.71l-.89-3.22c.69-2.8,11.6-4.36,14.42-4.75.9-.12,2.48,2.98,2.99,2.96s8.13-5.65,8.47-6.06c4.58-5.47,2.94-14.02,4.95-17.65,1.68-3.02,8.87-3.16,11.48-4.97s1.84-6.92,6.6-6.51l-1.54-3.24c-17.75,9.03,2.35-9.65,1.59-15.97-.94-7.79-23.96,6.2-18.19,16.86l-3.2,1.02-2.6-2.64,2.94-7c-14.85,5.49-6.94-6.19-8.06-9.21-2.85-7.7-5.59,5.83-5.45,8.19.25,4.15,6.02,5.07,4.52,9.82-4.88-.25-9.54,1.89-14.48,1.07-1.79-.3-4.27-3.65-4.52-3.26-1.24,2.02,2.9,6.86-6.01,6.61,2.52,6.16,7.58,2.71,3.98,12.09-13.61-10.24-6.4-2.96-10.62,1.22-1.33,1.32-8.27-3.67-7.2,4.67s17.43-8.7,20.67-.22c.36.94-4.41,10.49-4.89,10.79-2.06,1.28-5.18-3.09-6.46-2.98-1.58.13-3.32,5.61-6.93,5.28-3.32-.31-3.94-5.08-5.3-5.55-.75-.26-14.72-1.26-15.75-1.16-12.67,1.24-4.47,9.34-3.95,16.02.2,2.65-2.93,5.69-2.42,8.55.44,2.49,5.35,3.91,4.74,7.7-.22,1.37-2.92,2.99-3.43,5.14-.61,2.58-2.25,14.39-2.93,15.47-2.01,3.18-4.24-1.65-6.52-.67-1.66.71-12.31,17.36-3.63,15.98,4.32-.68.58-9.34,4.62-8.72,2.19,11.29-4.76,19.76,4.95,27.92l-10.95,5.09c1.7,4.03,5.49,21.37-1.51,20.87-.87-.06-1.28-6.57-4.89.11s3.13,17.61-5.98,11.88c-9.63-6.06,5.77-12.44-1.1-19.66-1.38,9.26-12.8,6.56-14.04,10.97-1.75,6.23,11.81,4.06,3.46,14.79-8.02,10.31-10.52,2.27-13.63,1.94-10.56-1.1,1.17,4.99-4.3,11.87,4.8,2.7,3.22-2.89,4.53-3.33.77-.26,7.68,1.64,8.2,3.85,1.21,5.23-7.11.59-9.73,2.2-3.27,2-.45,8.24-4.99,8.31-1.89,3.86,6.77.98,9.57,3.18,7.61,5.96-5.13,4.72-5.6,4.98-1.23.69-1.58,3.35-2.7,3.95-9.93,5.3-7.11-6.92-13.31-10.45-3.49-1.99-10.59-.15-10.96-.6-1.05-1.26,2.89-7.84-.53-9.89l-2.29,2.47c3.83,9.3-5.47,4.69-6.18,5.22-.38.28,1.07,4.43-3.52,4.52-4,.08-10.87-14.33-15.94-13.34-2.18.42-3,3.05-5.07,3.3-6.02.73-10.31-1.91-15.47,1.14l3.99,1.1c-.5,12.9-24.41,10.76-18.14,27.13l-1.39,2.56-20.48-4.4c-7.42-3.47-14.7-7.25-22-11-4.25-16.75-6.81-34.07-8.85-51.31-2.17-18.35-10.9-101.63-6.88-113.95.97-2.97,11.9-16.66,14.74-20.64,2.09-2.92,4.36-4.94,7-8.8.53-.78.69-1.73,1-2.2s.79-.77,1-1.1c5.34-8.37,14.46-14.07,3.49-26.39-18.04-20.26-112.35-19.93-142.33-32.67-2.24-.95-2.61.06-2.16-3.63,14.01-71.52,22.37-146.74,22-220h1l.93,25.92,83.82,22.19c4.71,1.09,8.95.11,13.25-1.91Z"/><path class="ba" d="M265.87,894.42c-.45,3.69-.08,2.68,2.16,3.63,29.98,12.75,124.29,12.41,142.33,32.67,10.97,12.32,1.85,18.03-3.49,26.39-2.54.08-7.05-3.45-8.5-3.44-3.12.02-2.22,2.38-3.94,2.43-21.39.54-43.22-1.53-63.55,2.1l3.49-2.19h-57.5s1.01-2.18,1.01-2.18c-9.81-.51-22.03-1.11-31.01-4.41,1.73-.07,3.36.67,5.07.53,2.84-1.57,12.57-48.59,13.93-55.53Z"/><path class="w" d="M286.87,673.32l1,1.1c.37,73.26-7.99,148.48-22,220-1.36,6.94-11.09,53.96-13.93,55.53-1.71.15-3.34-.6-5.07-.53-1.62.07-3.39.15-5,0,2.03-18.28,8.24-36.57,12-55,12.96-63.43,22.1-132.85,23-198,.12-8.65-.9-17.99,1-26.4,2.63,1.25,6.43,1.06,9,3.3Z"/><path class="af" d="M268.87,694.22c2.33.05,5.5,1.95,8,2.2-.9,65.15-10.04,134.57-23,198l-14-6.6c.07-.35-.07-.75,0-1.1,12.62-63.33,22.97-127.38,23.99-192.51,1.66.01,3.34-.03,5.01,0Z"/><path class="g" d="M253.87,894.42c-3.76,18.43-9.97,36.72-12,55-2.35-.22-8.29-4.39-12.99-2.21l1.99-2.17-4-.02c4.05-19.12,9.16-37.96,13.01-57.19l14,6.6Z"/><path class="j" d="M397.87,969.22l-34.72,13.15-23.29,2.26,1.01,2.18-12.85,1.28c2.04,44.71,4.9,89.66,9.85,134.03.55,4.95,1.39,9.51,2,14.3.9,7-.1,19.22,3.02,25.61.28.58,8.47,6.17,9.98,7.39h-2c-1.82-1.44-7.99-3.69-9.26-5.45l-1.5-3.01c-7.11-58.54-10.84-117.48-15.24-176.34,23.89-1.29,47.49-5.74,69-17.6,3.79-2.09,7.47-4,11-6.6-2.64,3.86-4.91,5.88-7,8.8Z"/><path class="ab" d="M288.87,674.42c5.61,4.97,13.33,4.47,19.78,6.96.37.14,2.9,4.66,3.91,5.03,9.61,3.61,24.98,5.3,35.32,10.02l-1.01,2.18,7,.02-2.99,2.17c6.78-1.89,11.68,4.71,18,4.42l-1.01,2.18,9,.02-1.99,2.17c4.1,2.16,12.33,3.43,9,8.81,2.69-1.73,7.26-2.09,3-4.38l4-.02c-.06-1.09.07-2.21,0-3.3-.17-2.23-2.73-5.21-3-7.7,2.61,3.7,6.19,5.96,5,12.1-.18.95-4.77,4.92-6,5.5-4.3,2.02-8.54,3-13.25,1.91l-83.82-22.19-.93-25.92Z"/><path class="q" d="M398.87,1155.12c7.3,3.75,14.58,7.53,22,11,263.43,123.06,622.62,122.93,883-8.8,5.62-2.85,11.9-6.73,18-7.7-.65,2.69.02,6.91-1,11-7.47,6.46-16.48,11.01-25,15.4-256.03,131.91-637.4,118.72-894-5.5-21.2-10.27-41.92-21.41-62-34.1-.61-4.79-1.45-9.35-2-14.3.9-2.13,3.13-.54,4.39.11,18.78,9.71,36.91,22.77,56.61,32.89Z"/><path class="ab" d="M1354.87,817.42c-7.35,6.27-2.81,26.09-2.97,35.69-.61,36.11-2.78,72.84-5.04,108.87-.16,2.54-2.95,4-2.98,4.5-.06.94,2.27-.01,2.13,2.14-.2,3.01-1.67,5.07-1.79,6.8-1.98,27.67-4,45.95-7.28,72.51-.78,6.29-.28,12.3-1.03,17.74-3.72,27-6.6,53.77-12.03,80.65-.56,2.41-1.95,3.11-2,3.3-6.1.97-12.38,4.85-18,7.7-3.02.55-2.04-1.42-1.75-3.54,7.2-51.4,18.8-100.26,23.73-153.23,2.96-31.82,4.38-160.96,16.61-178.62,2.44-3.52,6.29-7.9,10.74-6.54l1.67,2.03Z"/><path class="bp" d="M932.87,685.4c-64.78,17.12-150.9-.18-188.9-65.32,61.69-27.54,152.76,3.27,188.9,65.32ZM818.61,622.98c-16.39,3.6-.9,25.9,12.71,27.29,29.86,3.04,11.04-32.5-12.71-27.29Z"/><path class="bg" d="M676.87,345.52l1.8,4.96c-6.87.84-3.52,8.53-7.28,13.77-.98,1.37-4.01.56-5.47,2.78-2.64,4.01.73,11.66-.98,14.08-1.2,1.69-3.31-.25-4.16,1.42-1.12,2.18-2.92,19.55-2.95,22.91-.08,9.04,1.1,24.67,2.2,31.94,2.75,18.19,6.53,22.55,14.45,37.83,1.04,2,2.35,1.81-.62,3.41-26.74-32.04-24.71-102.58,3-133.1Z"/><path class="k" d="M1295.87,1176.02c-.92,6.31-5.16,23.27-9,27.5-5.93,6.54-31.21,12.75-38.75,20.85l-17.25,4.47,1.99,2.17-24.27,6.66c-5.47,3.76-13.48,6.96-19.73,6.56l1.01,2.18-5.01.02,1.01,2.18-89,24.2-34.01,4.42,1.01,2.18-13.01.02,1.01,2.18c-9.82.23-18.45,3.62-29,2.22l2.99,2.17-33.99,2.23,3.99,2.17c-16.79.54-33.78,1.05-50.55,2.13-14.26.92-33.35,4.06-47.82,4.57-35.29,1.24-70.81-1.12-106.12-.08l.5-2.2-60.56-2.13c-6.07-4.96-16.78-1.06-24.44-2.3l-55-8.8,2.99-2.17c-3.95-.5-8.75.61-12.55.07-1.75-.25-1.43-2.11-2.17-2.23-12.25-2.09-23.45-3.87-36.27-4.46l2.99-2.17c-23.69-1.52-45.47-12.52-69-15.42l1.01-2.18-23.01-4.42,1.01-2.18-24.01-6.62,1.01-2.18-31.01-8.82,1.01-2.18-11.01-2.22,1.01-2.18-11.01-2.22,1.01-2.18-15.01-4.42,1.01-2.18c-2.18.1-14.15-4.75-15.01-5.51-.35-.31-.68-.74-1-1.1-3.98-4.4-11.49-27.09-12-34.1,256.6,124.22,637.97,137.41,894,5.5Z"/><path class="x" d="M401.87,1170.52c.51,7.01,8.02,29.7,12,34.1-8.23-2.37-13.93-9.56-24.01-11.01l1.01-2.18c-12.15-5.25-27.51-13.57-38.01-22.01-1.52-1.22-9.7-6.81-9.98-7.39-3.11-6.39-2.12-18.61-3.02-25.61,20.08,12.69,40.8,23.83,62,34.1Z"/><path class="bv" d="M1442.87,880.12c.57,6.31,2,15.55,2,21.45v18.7c0,5.02,2.06,12.45,1,18.15-10.1,2.18-22.33,5.42-31.44,6.68-4.12.57-9.28-.59-13.55-.07l1.99,2.17-27.84,2.05c-2.84-35.71.51-82.37-10.15-116.43,10.83,12.32,17.27,44.02,31.93,51.23,14.34,7.04,31.4-2.71,46.07-3.93Z"/><path class="al" d="M1417.87,670.02c2.04-.03,6.56-1.24,7.35-.97,5.36,1.85,24.03,87.51,26.37,99.72.77,4,.04,8.31.29,12.35l1.98-1.11c5.27,30.64,9.27,61.32,12.01,92.41-3.93,1.13-7.96,3.39-12,4.4-6.31-63.38-17.9-147.7-39-206.8,1,0,2,.01,3,0Z"/><path class="ag" d="M1465.87,872.42c1.76,19.92,5.13,42.37,2,61.59-4.22-2.18-8.11,1.97-9,2.21-1.44-19.81-3.04-39.7-5-59.4,4.04-1.01,8.07-3.27,12-4.4Z"/><path class="f" d="M974.87,1091.32c0,.73,0,1.47,0,2.2.17,14.8.15,35.93-10.45,46.26-2.34,2.28-7.3,2.2-10.13,6.46-3.46,5.2-4.3,21.63-12.91,10-4.57,14.92-9.42,2.25-19.51,7.68l5.01-6.04-5.01-1.65c14.67-12.56,20.25-24.91,25-44,.04-.18,2.38.14,2.89-1.83s-.23-12.4.04-15.19,1.91-4.87,2.09-7.7c2.06-32.23-1.9-64.76-1.08-96.93,28.07.19,16.93,3.49,18.38,20.86,2.18,26.11,5.38,53.48,5.68,79.89Z"/><path class="cc" d="M755.87,978.02c.19-4.33-13.59-8.75-9.57-14.33,3.65-5.08,9.07,5.13,11.55,3.33,1.55-1.13,1.85-15.23,14.54-9.87l.47-5.52-4.48,1.09c-2-9.58,14.54,7.38,12.54-8.28-.31-2.43-12.32-13.92-14.33-15.07-4.4-2.52-15.17-1.34-15.74-1.95-.8-.85,1.15-6.31.8-8.02-1.4-7.03-8.74-7.71-.3-20.54,4.44.73,1.62,6.45,2.51,7.67,2.25,3.09,6.53-6.14,4.99-8.8l18.98,3.85c-4.36,11.54-25.65,5.08-23.98,21.45l37,1.12c-4.46.68-13.03,8.98-7.49,13.16,5.66-13.72,6.64-.49,11.24.93,3.97,1.23,7.47-3.58,10.3-1.52,3.23,2.35-.34,11.46,12.93,5.04,2.13,13.92-1.7,4.07-5.22,3.57-3.42-.49-16.18,5.94-16.73,5.2v-6.6c-14.2.13-5.15,9.27-6.93,11.62l-10.07,2.14c7.48,1.31,3.53,9.33-1.37,7.07-2.19-1.01-1.26-5.9-4.63-5.42l-3,10.99c13.33,4.28,11.09-3.29,15.27-6.29,3.72-2.68,9.48.55,13.05-5.69,2.84,4.45,23.7,19.14,19.67,24.08-15.12-5.49-11.16-4.9-16.13,8.72-.16.43-2.78-.08-2.87.1-.53,1.08,2.34,22.9,1.82,24.5-1.13,3.51-4.37,2.26-6.33,4.08-3,2.8,1.53,5.96-10.56,3.96l-.95-6.14c-2.33.29.35,5.34-2.51,2.21l-1.48-8.82c8.73-21.72,3.12-15.42-11.22-29.44-5,.72-8.01-2.23-11.78-3.56Z"/><path class="cc" d="M652.87,1141.92c1.95,1.75,2.97,6.32,3.97,7.18.9.77,8.74.18,8,4.38-.91,5.16-7.85-2.33-8.59-2.46-3-.54-5.84,1.76-11.1-.06-1.02-.35-16.79-12.9-17.36-13.9-4.34-7.69-.19-20.76-.92-21.53-3.66-3.87-16.48,2.93-13.93,11.63l-6.06-1.22c3.53-12.18,13.44-8.45,9.99-23.6l-9.99,2.18c5.64-7.97-.83-17.55,1.38-24.58,2.64-8.39,12.67-5.6,11.63,4.04,6.95,1.36,3.21-10.86,12.95-11.99.61-.07,11.56,2.4,12.02,2.85.37.36-.46,3.68.12,4.24,1.68,1.63,10.99-.2,12.44,6.8.61,2.92-3.64,5.04.44,8.74-1.29,1.37-16.78,32.77-16.96,34.74-.54,6.03,8.17,9.16,11.96,12.56Z"/><path class="cc" d="M694.87,1083.62c6.53,2.21,13.85,3.84,20.16,6.75,6.6,3.04,20.68,10.98,14.89,21.07-3.25,5.66-22.65,1.84-28.61,3.07l-23.44-8.88c2.26-3.86-.49-1.17-2.68-2.57-1.19-.76-4.52-4.6-5.32-5.13,4.11-6.2-4.95-5.23-4.98-7.15-.02-1.77,5.69-1.72,6.74-3.02,1.49-1.83.22-8.47,3.24-10.24,3.4-1.99,15.81,4.69,19.99,6.11Z"/><path class="ah" d="M974.87,985.72c.8-1.57,4.37.04,2-3.29l17-.02-2.99-2.17c9.66,2.33,19.81-4.18,27.73.17l40.76,76.85,23.46-87.25c3.98-3.2,8.26-3.36,13.05-3l-1.01-2.18,9.01-.02-1.01-2.18c11.86,3.18,20.08-10.47,25.95,5.09,10.61,28.14,26.09,114.98,30.78,147.56.77,5.33,5.73,23.3-2.71,21.16l1.99,2.17-33,4.42,1.01,2.18-8.03-.51-15.99-87.48-4.98,6.59c.11-.7-.11-1.5,0-2.2.9-5.93,2.33-11.65,3-17.6.67-.02,1.33.02,2,0l16.01,99.01c1.43,1.53,37.28-7.68,38.99-8.81,3.84-2.52-.38-18.86-1.47-25.33-8.25-49.13-21.23-97.54-31.68-146.1l-40.61,8.9-21.24,93.23c-1.51,3.23-1.35,1.51-3,1.1l-44.02-84.12-40.98,3.82Z"/><path class="bu" d="M698.87,971.42c21.12-1.07,36.93-.5,57,6.6,3.76,1.33,6.78,4.28,11.78,3.56,14.34,14.02,19.96,7.73,11.22,29.44-1.97,4.91-9.03,19.71-12,22l-.49,2.19c-1.98.08-10.37-7.72-12.38-8.64-9.15-4.18-62.55-21.34-47.82,3.9,2.29,3.92,11.42,4.53,8.68,6.94l15.01,4.42-1.01,2.18c12.57,3.25,30.38,11.98,39.39,22.03.7.78-.49,2.05-.4,2.17.25.32,2.8-.29,3.03.02,14.07,19.82,12.96,53.96-2.91,74.08-1.03,1.31-2.9.5-3.1.73-.11.12,1.11,1.99.97,2.14-.32.35-7.33,3.97-7.98,4.45-.09.07,1.11,2.11,1.01,2.18-1.54,1.06-6.74-2.02-4,2.2-21.72,10.19-45.96,6.94-68.01,4.4l1.01-2.18c-13.01-.54-23.59-8.72-35.01-14.31-3.79-3.4-12.5-6.54-11.96-12.56.18-1.96,15.67-33.37,16.96-34.74,4.82-5.09,7.37.19,12,3.3.8.53,4.13,4.38,5.32,5.13,2.19,1.4,4.95-1.29,2.68,2.57-5.94-3.45-11.9-6.42-16.5-12.08l-19.36,35.94c36.32,39.09,141.34,48.61,136.83-30.99-2.55-44.98-45.7-44.73-69.88-62.82-6.92-5.18-13.54-16.67-1.92-20.63,17.32-5.91,45.36,7.4,59.84,17.98l13.57-35.12c.16-2.45-2.37-3.22-3.57-4.48-23.49-24.76-89.22-30.99-110,2.2-10.94,17.47-12.71,38.46-3,57.2,16.15,31.18,51.3,26.79,66.04,44.51,5.99,7.2,4.97,12.83-1.04,19.29-.24.17-1.65.94-2,1.1-17.83,3.81-33.61-3.16-49-12.1l23.44,8.88c5.97-1.23,25.37,2.59,28.61-3.07,5.79-10.09-8.29-18.03-14.89-21.07-6.31-2.9-13.63-4.53-20.16-6.75-.52-3.35-5.63-5.14-8.01-4.41l1.01-2.18c-7.51-2.16-16.02-7.37-21.05-13.7-4.29-5.4-10.13-16.72-10.95-23.72-2.75-23.44,5.95-54.49,28.01-61.61l-1.01-2.18,14-2.22-1.99-2.17h3.99Z"/><path class="b" d="M856.87,1118.82c1.02,1.06,4.38,2.89,6.01,2.21l-1.01,2.18c12.92.38,28.45,2.78,35.2-12.42,9.77-22,.99-118.89,5.28-122.9,14.32-.24,31.06-4.05,44.3-.89l.23,125.22c-4.75,19.09-10.33,31.44-25,44-9.04,7.74-23.45,14.3-35,15.4.64-3.24-1.48-2.13-4-2.2,85.06-9.08,61.03-116.71,62.01-181.51l-39.5,1.11c-2.6.18-2.16,1.81-2.55,3.79-3.87,19.78,3.09,70.54,1.02,95.72-.76,9.31-4.11,26.34-10.97,32.48-11.05,9.87-28.29,8.21-38-2.2h2Z"/><path class="cc" d="M588.57,1176.37c3.62,2.76,5.22,14.73,6.53,15.9,5,4.46,16.98-4.78,14.3,10.21-5.75-1.49-14.57,2.31-19.5-.66-7.45-4.49-7.68-28.52-16.04-7.11h7s-.45,3.36-.45,3.36l-13.09,4.45-1.27-2.65c6.52-9.49-6.68-22.67,7.32-23.95,5.09-.47,6.32,3.56,8.01,3.47,3.19-.18,2.11-6.89,7.18-3.02Z"/><path class="cf" d="M1097.87,1061.62c-.11.7.11,1.5,0,2.2-1.24,7.82-10.38,51.26-13.53,54.97-3.66,4.3-28.47,7.91-33.72,6.57l-30.74-54.93,2.99,90.19h-2s0-2.19,0-2.19c0-26.94-8.33-78.73-5-101.2.13-.86,0-2.07,1-2.2l32.15,65.28c2,5.89,32-1.08,33.31-2.62l15.54-56.06Z"/><path class="h" d="M804.87,992.32c1.7,82.32-30.11,174.22,78,177.1,2.52.07,4.64-1.04,4,2.2-21.38,2.03-44.21-1.41-61.97-15.44-.11-.09,1.06-2.02.94-2.12-30.08-25.93-26.8-64.22-26.01-104.03.2-9.87,1.86-55.89,4.04-62.11,1.48.88.97,2.9,1,4.4Z"/><path class="cc" d="M470.86,1173.82c.18.13-.14,3.27,1.44,4.47,3.76,2.86,21.03,9.6,23.58,7.62.44-.34-1.53-11.87,4.83-3.61-5.15,12.65,14.77,2.06,17.07,3.73,1.35.98.59,7.8,1.61,9.8,1.48,2.92,7.69,1.59,7.5,5.49-10.59,2.71-19.48-4.92-29.01-8.36-9.21-3.32-20.78-5.48-29.76-10.06-8.9-4.54.87-10.45,2.76-9.07Z"/><path class="cc" d="M589.64,1097.67c-.27.32-5.76,3.84-6.77,4.64,4.12-8.87-8.76-10.27-2.75-17.33.51-.6,3.08-.09,3.69-.83,6.25-7.5,7.03-15.51,10.55-24.71,6.73,4.77,3.59,11.41,4.47,14.77.79,3.03,8.16,16.63,2.59,17.1-2.46.21-3.88-3.72-6.53-2.82-3.66,1.24-4.68,8.48-5.26,9.18Z"/><path class="cc" d="M592.08,1213.17c4.95.96,20.23-1.83,24.83-.44,3.25.98,8.6,9.99,10.41,11.74,2.38,2.3,6.84,1.64,7.54,4.87-.57,1.48-20.66-1.01-23.43-1.69-8.59-2.09-21.54-6.52-23.57-16.98l2.51-.56c.76.48,1.35,2.99,1.7,3.06Z"/><path class="y" d="M803.87,987.92c.42-1.19,1.24-3.69,2.44-4.02,3.21-.88,40.93.88,42.68,3.59,2.52,30.59-3.16,61.77-2.2,92.26.39,12.44,1.51,30.11,10.08,39.06h-2c-7.81-8.38-9.14-17.54-10.03-29.11-2.5-32.2,3.65-68.23,2.59-100.76-5.12.56-40.13-4.9-41.56-3.24-.46.53.97,5.62-1,6.61-.03-1.5.48-3.52-1-4.4Z"/><path class="bb" d="M977.87,1133.12c.16,7.48-.58,15.82,0,23.1l-3-62.7c0-.73,0-1.47,0-2.2l-2.06-100.72c-.95-3.11,1.62-4.02,2.06-4.88,1.31,49.11,1.96,98.28,3,147.4Z"/><path class="cc" d="M582.54,1212.05c0,.15-3.45.73-1.67,2.45,1,.96,6.74,1.15,7.97,3.87-.36,5.43-31.42-3.14-26.97-8.24,9.12,6.04,7.87-8.61,19.96-1.62,1.78.93.74,2.22.7,3.55Z"/><path class="cc" d="M669.82,1225.57c1.34,1.01-.16,8.34.07,8.69.94,1.45,8.07-.04,8.98,3.34-14.52,3.51-9.45-3.82-10-4.38-2.76-2.77-6.29,4.34-6.7,4.46-.98.29-18.45-3.39-13.71-7.89,2.48-2.35,7.63.59,10.64-.08,2.74-.61,8.59-5.76,10.72-4.15Z"/><path class="ci" d="M977.87,1133.12l2.06,29.62,40.94-4.32v2.2c-13.72,2.39-27.44,5.03-41.37,4.47-1.51-.72-1.49-7.09-1.63-8.87-.58-7.28.16-15.62,0-23.1Z"/><path class="ai" d="M414.87,727.22l-4,13.2c-3.09-1.97-24.2-13.02-24.92-14.42-.59-1.15.73-3.95.92-5.38,1.23-.58,5.82-4.55,6-5.5,1.92.21,7.74,2.18,8.95,2.8,4.5,2.32,8.82,6.52,13.05,9.3Z"/><path class="be" d="M397.87,969.22c-2.84,3.98-13.77,17.68-14.74,20.64-4.02,12.32,4.71,95.6,6.88,113.95,2.04,17.24,4.61,34.56,8.85,51.31-19.7-10.12-37.83-23.18-56.61-32.89-1.26-.65-3.49-2.24-4.39-.11-4.95-44.37-7.81-89.32-9.85-134.03l12.85-1.28-1.01-2.18,23.29-2.26,34.72-13.15Z"/><path class="cg" d="M818.61,622.98c23.75-5.21,42.57,30.33,12.71,27.29-13.61-1.38-29.1-23.69-12.71-27.29Z"/><path class="s" d="M1156.87,1132.02c-4.38,3.57-8.71,1.91-13.99,2.21l2.99,2.17-24.88,2.08c-6.89-27.78-7.78-60.07-14.65-87.37-.46-1.81-1.01-7.19-3.47-7.1-.67.02-1.33-.02-2,0l-1-1.64-2.01,7.13-1.97-2.18c1.42,8.01-12.94,65.85-15.51,68.19-3.69,3.35-23.11,3.92-28.33,5.31l-35.17-65.8c-1.01.13-.87,1.34-1,2.2l3,98.99-35.4,4.39-5.34-171.36c5.25-1.95,33.99-6.47,37.57-4.42,4.57,9.15,39.51,80.05,44.17,81.21,1.65.41,1.49,2.13,3-1.1l22.11-91.19,24.89-4.52-1.01-2.18,14.03-1.64c7.4,31.13,15.03,62.57,21.5,94,4.55,22.11,11.43,50.61,12.47,72.63Z"/><path class="p" d="M1059.87,1066.02c-4.66-1.15-39.61-72.05-44.17-81.21-3.58-2.05-32.32,2.47-37.57,4.42l5.34,171.36,35.4-4.39-3-98.99c-3.33,22.47,5,74.26,5,101.2l-40.94,4.32-2.06-29.62c-1.04-49.12-1.69-98.29-3-147.4l40.98-3.82,44.02,84.12Z"/><path class="t" d="M1062.87,1064.92l21.24-93.23,40.61-8.9c10.45,48.56,23.43,96.97,31.68,146.1,1.09,6.47,5.32,22.81,1.47,25.33-.9-.39-.96-1.29-1-2.2-1.05-22.02-7.92-50.52-12.47-72.63-6.47-31.43-14.09-62.87-21.5-94l-14.03,1.64,1.01,2.18-24.89,4.52-22.11,91.19Z"/><path class="p" d="M1100.87,1044.02c-.67,5.95-2.1,11.67-3,17.6l-15.54,56.06c-1.31,1.55-31.31,8.52-33.31,2.62l-32.15-65.28,35.17,65.8c5.22-1.39,24.64-1.96,28.33-5.31,2.58-2.34,16.94-60.18,15.51-68.19l1.97,2.18,2.01-7.13,1,1.64Z"/><path class="aw" d="M1102.87,1044.02c2.46-.09,3.01,5.29,3.47,7.1,6.87,27.3,7.76,59.59,14.65,87.37l24.88-2.08-2.99-2.17c5.29-.31,9.62,1.36,13.99-2.21.04.91.1,1.81,1,2.2-1.71,1.12-37.57,10.33-38.99,8.81l-16.01-99.01Z"/><path class="ae" d="M766.87,1033.02c-14.48-10.58-42.52-23.89-59.84-17.98-11.61,3.96-5,15.46,1.92,20.63,24.18,18.09,67.33,17.84,69.88,62.82,4.51,79.6-100.51,70.08-136.83,30.99l19.36-35.94c4.6,5.66,10.56,8.62,16.5,12.08,15.39,8.94,31.17,15.91,49,12.1-1.58.71-3.53,3.18-3.77,3.23-10.88,2.14-22.42-3.66-33.24-4.34l1.01-2.18-11.01-2.22c.15-.56,1.11-2.11,1.01-2.16-2.81-1.64-19.14-11.64-20.31-11.07-2.78,8.18-12.03,19.55-14.37,27.07-2.58,8.29,14.75,14.45,20.67,17.01l-1,2.15c5.38-2.19,8.27,2.98,11.84,4.27,21.65,7.85,43.76,8.6,66.17,4.53l-1.01-2.18c26.14-6.37,38.27-36.13,31.72-64.04-4.92-20.96-27.47-34.31-47.72-39.38l1.01-2.18-5.28-.06c-8.36-6.01-26.59-10.98-23.07-25.17,4.06-16.38,32.03-7.38,42.35-5.57l-1.01,2.18c8.56.8,16.32,7.56,24.47,10.98,1.29-.91,13.34-28.56,13.53-30.23.17-1.43-5.39-2.63-2.99-4.94h1c1.2,1.26,3.72,2.03,3.57,4.48l-13.57,35.12Z"/><path class="bm" d="M854.87,1118.82c9.71,10.41,26.95,12.07,38,2.2-.09.07,1.12,2.09,1,2.18-.52.36-7.35,4.19-7.77,4.33-66.77,21.7-36.22-100.32-41.35-136.17l-37.88-2.35c.33,34.18-5.21,68.6-3.03,102.89,3.58,56.14,38.73,83.67,89.47,73.05,69.05-14.46,48.58-115.52,49.56-173.73h-36.5c-5.48,27.33,7.49,105.12-7.49,126.74-2.72,3.93-5.47,2.6-6.01,3.06,6.87-6.14,10.21-23.17,10.97-32.48,2.07-25.18-4.89-75.95-1.02-95.72.39-1.98-.05-3.62,2.55-3.79l39.5-1.11c-.98,64.79,23.05,172.43-62.01,181.51-108.11-2.88-76.3-94.78-78-177.1,1.97-.98.54-6.08,1-6.61,1.43-1.66,36.44,3.8,41.56,3.24,1.05,32.53-5.09,68.55-2.59,100.76.9,11.58,2.22,20.74,10.03,29.11Z"/><path class="bh" d="M667.87,995.62c9.33-7.77,18.27-18.72,31.01-17.61l-.5-2.2c28.27-2.65,52.77,3.24,77.5,17.61-2.4,2.31,3.16,3.51,2.99,4.94-.2,1.67-12.25,29.31-13.53,30.23-8.15-3.41-15.9-10.17-24.47-10.98l1.01-2.18c-10.32-1.81-38.29-10.81-42.35,5.57-3.52,14.19,14.71,19.16,23.07,25.17l5.28.06-1.01,2.18c20.25,5.07,42.8,18.42,47.72,39.38,6.55,27.91-5.58,57.67-31.72,64.04l1.01,2.18c-22.42,4.08-44.53,3.32-66.17-4.53-3.57-1.29-6.45-6.47-11.84-4.27l1-2.15c-5.91-2.56-23.24-8.72-20.67-17.01,2.34-7.52,11.59-18.89,14.37-27.07,1.17-.58,17.5,9.43,20.31,11.07.1.06-.86,1.6-1.01,2.16l11.01,2.22-1.01,2.18c10.81.67,22.35,6.48,33.24,4.34.23-.05,2.19-2.51,3.77-3.23.35-.16,1.76-.93,2-1.1,8.97-6.47,8.46-16.41.02-23.45-2.61-2.18-13.76-4.94-11.02-7.34l-14.01-4.42,1.01-2.18-6.19-.35-13.82-6.27c2.51-4.1-1.4-1.08-3.23-2.27-4.33-2.8-14.59-12.6-16.77-17.52-8.59-19.46-5.02-38.41,3-57.2Z"/><path class="bt" d="M776.87,993.42h-1c-24.73-14.37-49.23-20.26-77.5-17.61l.5,2.2c-12.74-1.11-21.68,9.84-31.01,17.61h-1c20.78-33.19,86.51-26.96,110-2.2Z"/><path class="az" d="M664.87,1052.82c2.18,4.93,12.44,14.72,16.77,17.52,1.82,1.18,5.73-1.83,3.23,2.27l13.82,6.27,6.19.35-1.01,2.18,14.01,4.42c-2.75,2.4,8.4,5.16,11.02,7.34,8.44,7.04,8.95,16.98-.02,23.45,6.01-6.46,7.02-12.09,1.04-19.29-14.73-17.72-49.88-13.33-66.04-44.51h1Z"/><path class="bl" d="M667.87,995.62c-8.02,18.79-11.59,37.74-3,57.2h-1c-9.71-18.74-7.94-39.73,3-57.2h1Z"/><path class="cb" d="M892.87,1121.02c.55-.46,3.29.87,6.01-3.06,14.97-21.62,2-99.41,7.49-126.74h36.5c-.99,58.21,19.49,159.27-49.56,173.73-50.74,10.63-85.89-16.91-89.47-73.05-2.19-34.29,3.35-68.7,3.03-102.89l37.88,2.35c5.13,35.85-25.42,157.87,41.35,136.17.42-.14,7.25-3.97,7.77-4.33.13-.09-1.08-2.11-1-2.18Z"/></svg>